<svg fill="none" xmlns="http://www.w3.org/2000/svg" viewBox="0 0 112 34"><g clip-path="url(#clip0)" fill-rule="evenodd" clip-rule="evenodd" fill="#959DAE"><path d="M69.483 26.59C62.974 31.421 53.54 34 45.418 34 34.03 34 23.777 29.757 16.02 22.7c-.61-.555-.063-1.312.668-.88 8.371 4.907 18.721 7.858 29.413 7.858 7.21 0 15.142-1.503 22.436-4.621 1.102-.472 2.023.727.946 1.532z"/><path d="M72.188 23.47c-.829-1.07-5.5-.505-7.595-.255-.64.079-.737-.481-.161-.884 3.72-2.637 9.823-1.876 10.535-.992.712.889-.185 7.053-3.68 9.994-.537.452-1.049.212-.81-.388.785-1.974 2.545-6.399 1.711-7.474zM64.739 3.713V1.149a.63.63 0 01.643-.648h11.394c.366 0 .658.265.658.648v2.196c-.005.368-.312.85-.858 1.61l-5.904 8.492c2.194-.054 4.51.275 6.499 1.404.448.256.57.629.604.997v2.736c0 .373-.409.81-.838.584-3.505-1.851-8.161-2.053-12.037.02-.395.216-.81-.216-.81-.59v-2.597c0-.418.005-1.13.42-1.764l6.84-9.88h-5.953c-.366 0-.658-.261-.658-.644zM23.177 19.709h-3.466a.657.657 0 01-.62-.595V1.194c0-.36.298-.644.668-.644h3.233a.655.655 0 01.629.6v2.342h.063c.843-2.264 2.428-3.32 4.563-3.32 2.17 0 3.525 1.056 4.5 3.32.839-2.264 2.745-3.32 4.788-3.32 1.453 0 3.042.604 4.012 1.96 1.097 1.507.873 3.698.873 5.618l-.005 11.31a.657.657 0 01-.668.649h-3.461a.662.662 0 01-.625-.649V9.562c0-.756.069-2.642-.097-3.36-.258-1.202-1.033-1.541-2.038-1.541-.838 0-1.716.564-2.072 1.468-.356.904-.322 2.416-.322 3.433v9.498a.657.657 0 01-.667.649h-3.462a.658.658 0 01-.624-.649l-.005-9.498c0-1.999.327-4.94-2.135-4.94-2.492 0-2.394 2.867-2.394 4.94v9.498a.657.657 0 01-.668.649M87.243.172c5.144 0 7.928 4.45 7.928 10.107 0 5.466-3.077 9.803-7.928 9.803-5.05 0-7.8-4.45-7.8-9.995 0-5.579 2.784-9.915 7.8-9.915zm.03 3.659c-2.555 0-2.716 3.506-2.716 5.692 0 2.19-.034 6.866 2.686 6.866 2.687 0 2.813-3.772 2.813-6.07 0-1.513-.063-3.32-.516-4.755-.39-1.247-1.166-1.733-2.267-1.733zm14.567 15.878h-3.452a.662.662 0 01-.624-.649L97.76 1.134a.657.657 0 01.668-.584h3.213a.664.664 0 01.619.501v2.74h.064c.97-2.45 2.33-3.62 4.724-3.62 1.555 0 3.071.566 4.046 2.113.907 1.434.907 3.845.907 5.579v11.28a.668.668 0 01-.668.566h-3.476c-.317-.025-.58-.26-.614-.565V9.41c0-1.96.224-4.828-2.17-4.828-.843 0-1.618.57-2.004 1.434-.487 1.095-.55 2.186-.55 3.394v9.65a.67.67 0 01-.678.649m-46.185-8.561c0 1.36.035 2.495-.648 3.703-.551.983-1.428 1.587-2.399 1.587-1.33 0-2.11-1.022-2.11-2.53 0-2.976 2.647-3.516 5.157-3.516v.756zm3.496 8.511a.72.72 0 01-.82.084c-1.15-.963-1.36-1.41-1.988-2.328-1.902 1.955-3.252 2.54-5.714 2.54-2.92 0-5.187-1.813-5.187-5.442 0-2.834 1.52-4.764 3.695-5.707 1.882-.835 4.51-.983 6.518-1.213V7.14c0-.83.064-1.812-.424-2.53-.42-.643-1.228-.908-1.945-.908-1.321 0-2.496.683-2.784 2.097-.058.314-.288.624-.604.639l-3.36-.364c-.282-.064-.6-.295-.516-.732C46.793 1.238 50.479 0 53.775 0c1.686 0 3.89.452 5.22 1.739 1.688 1.586 1.527 3.703 1.527 6.006v5.442c0 1.635.673 2.352 1.306 3.236.22.314.269.692-.014.928a148.3 148.3 0 00-2.657 2.318l-.005-.01m-48.938-8.51c0 1.36.034 2.495-.649 3.703-.55.982-1.423 1.586-2.398 1.586-1.331 0-2.106-1.022-2.106-2.53 0-2.976 2.647-3.516 5.153-3.516v.757zm3.495 8.51a.72.72 0 01-.819.084c-1.15-.962-1.355-1.41-1.989-2.328-1.901 1.955-3.247 2.54-5.714 2.54C2.272 19.954 0 18.141 0 14.512c0-2.834 1.526-4.764 3.695-5.707 1.882-.835 4.51-.982 6.519-1.213V7.14c0-.83.063-1.812-.42-2.53-.424-.643-1.233-.908-1.945-.908-1.321 0-2.5.683-2.788 2.097-.059.315-.288.624-.6.639l-3.364-.364c-.283-.062-.595-.293-.517-.73C1.355 1.238 5.036 0 8.332 0c1.687 0 3.89.452 5.221 1.739 1.687 1.586 1.526 3.703 1.526 6.006v5.442c0 1.635.673 2.352 1.307 3.236.224.315.273.693-.01.928-.707.595-1.965 1.7-2.657 2.319l-.01-.01"/></g><defs><clipPath id="clip0"><path fill="#fff" d="M0 0h112v34H0z"/></clipPath></defs></svg>