<svg xmlns="http://www.w3.org/2000/svg" overflow="visible" viewBox="0 0 477.4 400.5"><style>.st1,.st8,.st9{fill-rule:evenodd;clip-rule:evenodd;fill:#394d54}.st8,.st9{fill:#00acd3}.st9{fill:#20c2ef}</style><path id="docker_1_" d="M353.5 375.3c10.7-9.2 21.5-18.4 32.2-27.7 3.7-3.2 7.7-6.4 11.3-9.8-2.9-3.7-7.8-6.3-11.9-7.9-8.3-3.2-16.6-2.1-24.2 2.3-10 5.8-14.3 15-13.9 26.5.1 4.5 1.4 8.9 3.8 12.7.7 1.4 1.7 2.7 2.7 3.9m12.4 8.7c5.3 1.8 11.3 1.6 16.7.6 2.8-1.2 9.8-4.3 12.4-3.8l.4.1.4.2c1.6.8 3.1 1.9 3.9 3.5 1.9 3.8 1 7.6-2.7 9.7l-1.2.7c-13.7 7.9-28.3 6.8-42-.6-6.5-3.5-11.5-8.8-15.2-15.2l-.9-1.5c-8.8-15.3-7.6-31.3 2.3-45.8 3.4-5 7.9-8.9 13.2-11.9l2-1.1c12.9-7.5 26.8-7 40.1-.4 7.1 3.5 12.9 8.8 16.9 15.7l.7 1.2c2.9 5-.9 9.4-4.7 12.4-4.5 3.5-9 7.6-13.3 11.4-9.8 8.2-19.4 16.6-29 24.8zm102.8-69.4h1.4c4.3 0 7.2 2.9 7.2 7.2 0 6-5.7 7.5-10.7 7.5-6.5 0-12.7 3.9-17.2 8.3-5.6 5.5-8 12.6-8 20.3v35c0 4-2.5 7.2-6.7 7.2h-1.1c-4.2 0-6.7-3.2-6.7-7.2v-37c0-14.2 6.9-25.8 18.5-34 7-4.7 14.9-7.3 23.3-7.3zm-180.3 24.9c5.6-5.6 11.3-11.2 17-16.8 1.6-1.5 7.6-8.1 10-8.1h2.6l.3.1c3.3.7 5.8 2.8 5.8 6.3v1.4c0 2.4-2.8 5.2-4.4 6.9-3.3 3.5-6.8 6.9-10.2 10.4L292 357.4c7.5 7.5 15 15.1 22.5 22.7 2.1 2.1 4.1 4.2 6.2 6.3.7.8 1.8 1.7 2.4 2.7.6 1 1 2.1 1 3.3v1.5l-.1.3c-.8 3.3-2.9 6-6.6 6h-1.2c-2.4 0-5.1-2.7-6.7-4.3-3.4-3.2-6.6-6.5-10-9.8l-11.1-10.9v17.4c0 4-2.5 7.2-6.7 7.2h-1.1c-4.2 0-6.7-3.2-6.7-7.2v-98.2c0-4 2.5-7.2 6.7-7.2h1.1c4.2 0 6.7 3.2 6.7 7.2v45.1zm-46.9-9.8c-2.2-1-6.3-1.4-8.6-1.5-12.1-.5-20.8 6.4-26 17-1.8 3.7-2.6 7.6-2.6 11.6 0 12.4 6.5 21.1 17.6 26.4 4 1.9 9.3 2.3 13.7 2.3 3.9 0 9.4-2.4 12.8-4l.6-.3h2.7l.3.1c3.3.7 5.8 2.8 5.8 6.3v1.4c0 8.8-16.1 10.8-22.2 11.3-21.7 1.5-37.9-10.4-44.1-31.1-1.1-3.6-1.6-7.2-1.6-10.9v-2.9c0-15.7 7.8-28.1 21.2-36.1 6.3-3.7 13.2-5.6 20.4-5.6h2.9c7.7 0 14.8 2.2 21.2 6.5l.5.4.3.5c.7 1.1 1.3 2.5 1.3 3.8v1.4c0 3.7-2.8 5.7-6.1 6.3h-1.2c-2.1.2-7-2-8.9-2.9zm-132 27.5c0 11 5.4 19.1 14.7 24.8 4.4 2.7 9.2 3.9 14.3 3.9 10.9 0 18.9-5.5 24.5-14.7 2.7-4.4 3.9-9.2 3.9-14.3 0-10.2-4.9-18-13.3-23.7-4.6-3.1-9.8-4.7-15.3-4.7-12.1 0-20.8 6.1-26.1 17-1.9 3.7-2.7 7.6-2.7 11.7zm27.3-43.1h2c16.8 0 29.5 8.1 37.6 22.8 3.2 5.9 5 12.2 5 18.9v2.9c0 15.7-7.7 28.2-21.3 36.1-6.3 3.7-13.2 5.6-20.4 5.6h-2.9c-15.7 0-28.2-7.8-36.1-21.2-3.7-6.3-5.6-13.2-5.6-20.4v-2.9c0-15.7 7.8-28.1 21.2-36.1 6.3-3.9 13.2-5.7 20.5-5.7zm-122 43.1c0 11.3 5.5 19.8 15.4 25.3 4 2.2 8.4 3.4 13 3.4 11.1 0 19.4-5.2 25.1-14.7 2.6-4.4 3.9-9.2 3.9-14.3 0-9.8-4.7-17.5-12.6-23.2-4.8-3.5-10.2-5.2-16.1-5.2-12.1 0-20.8 6.1-26.1 17-1.8 3.7-2.6 7.6-2.6 11.7zm57.3-32.3v-30.6c0-4 2.5-7.2 6.7-7.2H80c4.2 0 6.7 3.2 6.7 7.2v64.3c0 15.7-7.8 28.2-21.3 36.1-6.3 3.7-13.2 5.6-20.4 5.6h-3c-15.7 0-28.2-7.8-36.1-21.2-3.7-6.3-5.6-13.2-5.6-20.4v-2.9c0-15.7 7.8-28.2 21.2-36.1 6.3-3.7 13.2-5.6 20.4-5.6h2.9c10.7 0 19.7 4.1 27.3 10.8z" fill-rule="evenodd" clip-rule="evenodd" fill="#e7e7e7"/><path id="outline_1_" class="st1" d="M275.4 85.4h42.7V129h21.6c10 0 20.2-1.8 29.7-5 4.6-1.6 9.8-3.8 14.4-6.5-6-7.9-9.1-17.8-10-27.6-1.2-13.3 1.5-30.7 10.5-41.1l4.5-5.2 5.3 4.3c13.5 10.8 24.8 25.9 26.8 43.2 16.2-4.8 35.2-3.6 49.5 4.6l5.9 3.4-3.1 6c-12.1 23.6-37.4 30.9-62.1 29.6-37 92.1-117.4 135.7-215 135.7-50.4 0-96.7-18.8-123-63.6l-.4-.7-3.8-7.8C60 178.6 57 157 59 135.5l.6-6.5h36.5V85.4h42.7V42.7h85.4V0h51.2v85.4z"/><g id="body_colors_1_"><path d="M413.7 101.5c2.9-22.2-13.8-39.7-24.1-48-11.9 13.8-13.7 49.8 4.9 65-10.4 9.3-32.4 17.6-54.8 17.6H66c-2.2 23.5 1.9 45.1 11.3 63.6l3.1 5.7c2 3.3 4.1 6.6 6.5 9.7 11.2.7 21.6 1 31.1.8 18.6-.4 33.9-2.6 45.4-6.6 1.7-.6 3.6.3 4.2 2 .6 1.7-.3 3.6-2 4.2-1.5.5-3.1 1-4.8 1.5-9.1 2.6-18.8 4.3-31.4 5.1.7 0-.8.1-.8.1-.4 0-1 .1-1.4.1-4.9.3-10.3.3-15.7.3-6 0-11.8-.1-18.4-.4l-.2.1c22.8 25.6 58.4 41 103.1 41 94.6 0 174.8-41.9 210.3-136 25.2 2.6 49.4-3.8 60.4-25.3-17.4-10.2-40-7-53-.5z" fill="#00aada"/><path d="M413.7 101.5c2.9-22.2-13.8-39.7-24.1-48-11.9 13.8-13.7 49.8 4.9 65-10.4 9.3-32.4 17.6-54.8 17.6H82.2c-1.1 35.9 12.2 63.2 35.8 79.7 18.6-.4 33.9-2.6 45.4-6.6 1.7-.6 3.6.3 4.2 2 .6 1.7-.3 3.6-2 4.2-1.5.5-3.1 1-4.8 1.5-9.1 2.6-19.7 4.6-32.2 5.3l-.3-.3c32.2 16.5 78.9 16.4 132.4-4.1 60-23 115.8-67 154.8-117.2-.7.4-1.2.7-1.8.9z" fill="#24b8eb"/><path d="M66.6 164.7c1.7 12.6 5.4 24.3 10.8 35.1l3.1 5.7c2 3.3 4.1 6.6 6.5 9.7 11.3.7 21.6 1 31.1.8 18.6-.4 33.9-2.6 45.4-6.6 1.7-.6 3.6.3 4.2 2 .6 1.7-.3 3.6-2 4.2-1.5.5-3.1 1-4.8 1.5-9.1 2.6-19.6 4.4-32.2 5.2-.4 0-1.2 0-1.6.1-4.9.3-10.2.4-15.7.4-6 0-12.1-.1-18.6-.4 22.8 25.6 58.7 41 103.4 41 81 0 151.4-30.7 192.3-98.6H66.6z" fill="#008bb8"/><path d="M84.7 164.7c4.8 22.1 16.5 39.4 33.4 51.2 18.6-.4 33.9-2.6 45.4-6.6 1.7-.6 3.6.3 4.2 2 .6 1.7-.3 3.6-2 4.2-1.5.5-3.1 1-4.8 1.5-9.1 2.6-19.8 4.4-32.4 5.2 32.2 16.5 78.7 16.3 132.2-4.3 32.4-12.4 63.5-30.9 91.5-53.2H84.7z" fill="#039bc6"/></g><g id="Containers_1_"><path class="st8" d="M134.2 95.6h2.9v30.8h-2.9V95.6zm-5.6 0h3v30.8h-3V95.6zm-5.6 0h3v30.8h-3V95.6zm-5.6 0h3v30.8h-3V95.6zm-5.6 0h3v30.8h-3V95.6zm-5.5 0h2.9v30.8h-2.9V95.6zm-3.1-3.1h37v37h-37v-37zM176.9 52.9h2.9v30.8h-2.9V52.9zm-5.6 0h3v30.8h-3V52.9zm-5.6 0h3v30.8h-3V52.9zm-5.6 0h3v30.8h-3V52.9zm-5.6 0h3v30.8h-3V52.9zm-5.5 0h2.9v30.8H149V52.9zm-3.1-3.1h37v37h-37v-37z"/><path class="st9" d="M176.9 95.6h2.9v30.8h-2.9V95.6zm-5.6 0h3v30.8h-3V95.6zm-5.6 0h3v30.8h-3V95.6zm-5.6 0h3v30.8h-3V95.6zm-5.6 0h3v30.8h-3V95.6zm-5.5 0h2.9v30.8H149V95.6zm-3.1-3.1h37v37h-37v-37z"/><path class="st8" d="M219.6 95.6h2.9v30.8h-2.9V95.6zm-5.6 0h3v30.8h-3V95.6zm-5.6 0h3v30.8h-3V95.6zm-5.6 0h3v30.8h-3V95.6zm-5.7 0h3v30.8h-3V95.6zm-5.4 0h2.9v30.8h-2.9V95.6zm-3.1-3.1h37v37h-37v-37z"/><path class="st9" d="M219.6 52.9h2.9v30.8h-2.9V52.9zm-5.6 0h3v30.8h-3V52.9zm-5.6 0h3v30.8h-3V52.9zm-5.6 0h3v30.8h-3V52.9zm-5.7 0h3v30.8h-3V52.9zm-5.4 0h2.9v30.8h-2.9V52.9zm-3.1-3.1h37v37h-37v-37zM262.3 95.6h2.9v30.8h-2.9V95.6zm-5.6 0h3v30.8h-3V95.6zm-5.6 0h3v30.8h-3V95.6zm-5.7 0h3v30.8h-3V95.6zm-5.6 0h3v30.8h-3V95.6zm-5.4 0h2.9v30.8h-2.9V95.6zm-3.1-3.1h37v37h-37v-37z"/><path class="st8" d="M262.3 52.9h2.9v30.8h-2.9V52.9zm-5.6 0h3v30.8h-3V52.9zm-5.6 0h3v30.8h-3V52.9zm-5.7 0h3v30.8h-3V52.9zm-5.6 0h3v30.8h-3V52.9zm-5.4 0h2.9v30.8h-2.9V52.9zm-3.1-3.1h37v37h-37v-37z"/><path class="st9" d="M262.3 10.2h2.9V41h-2.9V10.2zm-5.6 0h3V41h-3V10.2zm-5.6 0h3V41h-3V10.2zm-5.7 0h3V41h-3V10.2zm-5.6 0h3V41h-3V10.2zm-5.4 0h2.9V41h-2.9V10.2zm-3.1-3.1h37v37h-37v-37z"/><path class="st8" d="M305 95.6h2.9v30.8H305V95.6zm-5.6 0h3v30.8h-3V95.6zm-5.7 0h3v30.8h-3V95.6zm-5.6 0h3v30.8h-3V95.6zm-5.6 0h3v30.8h-3V95.6zm-5.5 0h2.9v30.8H277V95.6zm-3-3.1h37v37h-37v-37z"/></g><path d="M180.6 189.5c5.6 0 10.2 4.6 10.2 10.2s-4.6 10.2-10.2 10.2-10.2-4.6-10.2-10.2 4.5-10.2 10.2-10.2" fill-rule="evenodd" clip-rule="evenodd" fill="#d4edf1"/><path class="st1" d="M180.6 192.4c.9 0 1.8.2 2.6.5-.9.5-1.5 1.5-1.5 2.6 0 1.6 1.3 3 3 3 1.1 0 2.1-.6 2.6-1.6.4.9.6 1.8.6 2.8 0 4-3.3 7.3-7.3 7.3s-7.3-3.3-7.3-7.3 3.2-7.3 7.3-7.3M0 168.3h474.9c-10.3-2.6-32.7-6.2-29-19.7-18.8 21.8-64.1 15.3-75.6 4.5-12.7 18.5-86.9 11.5-92.1-2.9-16 18.7-65.5 18.7-81.5 0-5.2 14.4-79.4 21.4-92.1 2.9-11.4 10.7-56.8 17.2-75.6-4.5 3.7 13.6-18.7 17.1-29 19.7"/><path d="M207.7 263.1c-25.3-12-39.2-28.3-46.9-46.1-9.4 2.7-20.7 4.4-33.8 5.1-4.9.3-10.1.4-15.6.4-6.3 0-12.9-.2-19.9-.6 23.2 23.2 51.7 41 104.5 41.3 4 .1 7.8 0 11.7-.1z" fill="#bfdbe0"/><path d="M170.2 233.4c-3.5-4.7-6.9-10.7-9.4-16.4-9.4 2.7-20.7 4.4-33.8 5.1 9 4.9 21.9 9.4 43.2 11.3z" fill="#d4edf1"/></svg>