<svg fill="none" xmlns="http://www.w3.org/2000/svg" viewBox="0 0 106 36"><path d="M45.108 18.462c0 4.997-3.893 8.679-8.67 8.679-4.778 0-8.671-3.682-8.671-8.68 0-5.031 3.893-8.678 8.67-8.678 4.778 0 8.672 3.647 8.672 8.679zm-3.795 0c0-3.123-2.257-5.26-4.875-5.26-2.62 0-4.876 2.137-4.876 5.26 0 3.091 2.257 5.259 4.876 5.259 2.618 0 4.875-2.172 4.875-5.26zm22.501 0c0 4.997-3.893 8.679-8.67 8.679-4.778 0-8.672-3.682-8.672-8.68 0-5.027 3.894-8.678 8.671-8.678 4.778 0 8.671 3.647 8.671 8.679zm-3.795 0c0-3.123-2.257-5.26-4.876-5.26-2.618 0-4.875 2.137-4.875 5.26 0 3.091 2.257 5.259 4.875 5.259 2.62 0 4.876-2.172 4.876-5.26zm21.721-8.155v15.582c0 6.41-3.764 9.027-8.214 9.027-4.19 0-6.711-2.813-7.662-5.114l3.305-1.382c.588 1.413 2.03 3.08 4.353 3.08 2.849 0 4.614-1.765 4.614-5.087v-1.248h-.133c-.85 1.052-2.486 1.972-4.551 1.972-4.322 0-8.282-3.78-8.282-8.644 0-4.9 3.96-8.71 8.282-8.71 2.061 0 3.698.92 4.551 1.94h.133v-1.412h3.605v-.004zm-3.335 8.186c0-3.056-2.03-5.29-4.614-5.29-2.62 0-4.813 2.234-4.813 5.29 0 3.025 2.194 5.228 4.813 5.228 2.584 0 4.614-2.203 4.614-5.228zm9.279-17.319v25.435h-3.702V1.174h3.702zm14.427 20.144l2.946 1.972c-.951 1.413-3.243 3.847-7.202 3.847-4.91 0-8.577-3.811-8.577-8.68 0-5.16 3.698-8.678 8.152-8.678 4.486 0 6.68 3.584 7.397 5.521l.393.986-11.554 4.805c.884 1.742 2.26 2.63 4.189 2.63 1.933 0 3.274-.955 4.256-2.403zm-9.069-3.122l7.724-3.22c-.425-1.085-1.703-1.84-3.207-1.84-1.93 0-4.614 1.71-4.517 5.06zm-79.289-1.992v-3.682H26.11c.12.642.183 1.4.183 2.222 0 2.763-.752 6.18-3.176 8.613-2.358 2.465-5.37 3.78-9.36 3.78C6.36 27.137.14 21.087.14 13.661.14 6.234 6.36.184 13.757.184c4.091 0 7.006 1.612 9.196 3.713l-2.587 2.599c-1.57-1.48-3.698-2.63-6.613-2.63-5.402 0-9.626 4.371-9.626 9.795 0 5.423 4.224 9.794 9.626 9.794 3.503 0 5.498-1.413 6.776-2.696 1.037-1.041 1.72-2.528 1.988-4.559l-8.764.004z" fill="#959DAE"/></svg>