<svg width="40" height="36" viewBox="0 0 40 36" fill="none" xmlns="http://www.w3.org/2000/svg">
<mask id="mask0" mask-type="alpha" maskUnits="userSpaceOnUse" x="0" y="0" width="40" height="36">
<path d="M11.8 18V14.8L6.8 13.3C6.3 13.2 6 12.7 6 12.2V6.8C4.5 6.3 3.5 5 3.5 3.5C3.5 1.6 5.1 0 7.1 0C9.1 0 10.6 1.6 10.6 3.5C10.6 5 9.6 6.3 8.2 6.8V11.4L11.7 12.4V11C11.7 10.5 12 10.1 12.4 9.9L19.5 7C19.8 6.9 20.1 6.9 20.4 7L22.1 7.7L24.8 3.4C25 3.1 25.4 2.9 25.8 2.9H30.7C31.2 1.5 32.5 0.6 34 0.6C35.9 0.6 37.5 2.2 37.5 4.1C37.5 6 35.9 7.6 34 7.6C32.5 7.6 31.2 6.6 30.7 5.3H26.4L24.2 8.7L27.4 10C27.8 10.2 28.1 10.6 28.1 11.1V18.6H30.6L32.9 16.8C32.8 16.5 32.7 16.1 32.7 15.7C32.7 13.8 34.3 12.2 36.2 12.2C38.1 12.2 39.7 13.8 39.7 15.7C39.7 17.6 38.1 19.2 36.2 19.2C35.5 19.2 34.8 19 34.3 18.6L31.7 20.7C31.5 20.9 31.2 21 31 21H27.9C27.5 22.8 26.5 24.4 24.9 25.4L23.6 26.3L26.4 30.9H30.6C31.1 29.5 32.4 28.6 33.9 28.6C35.8 28.6 37.4 30.2 37.4 32.1C37.4 34 35.8 35.6 33.9 35.6C32.4 35.6 31.1 34.6 30.6 33.3H25.7C25.3 33.3 24.9 33.1 24.7 32.7L21.6 27.7L20.4 28.5C20 28.8 19.5 28.8 19.1 28.5L16.4 26.7L13 30.6C13.4 31.1 13.6 31.8 13.6 32.5C13.6 34.4 12 36 10.1 36C8.2 36 6.6 34.4 6.6 32.5C6.6 30.6 8.2 29 10.1 29C10.5 29 10.8 29.1 11.2 29.2L14.8 25.2C13.2 24 12.1 22.3 11.9 20.3H9.1L6.9 21.6C7 21.9 7 22.3 7 22.6C7 24.5 5.4 26.1 3.5 26.1C1.6 26.1 0 24.6 0 22.6C0 20.7 1.6 19.1 3.5 19.1C4.2 19.1 4.9 19.3 5.5 19.7L8.2 18.1C8.4 18.1 8.6 18 8.8 18H11.8ZM14.1 11.8V19.5C14.1 21.1 14.9 22.5 16.2 23.4L20 25.9L23.8 23.4C25.1 22.5 25.9 21.1 25.9 19.5V11.8L20 9.4L14.1 11.8ZM10 33.7C10.6 33.7 11.2 33.2 11.2 32.5C11.2 31.9 10.7 31.3 10 31.3C9.4 31.3 8.8 31.8 8.8 32.5C8.8 33.2 9.4 33.7 10 33.7ZM3.5 23.8C4.1 23.8 4.7 23.3 4.7 22.6C4.7 22 4.2 21.4 3.5 21.4C2.9 21.4 2.3 21.9 2.3 22.6C2.4 23.3 2.9 23.8 3.5 23.8ZM34.1 33.1C34.7 33.1 35.3 32.6 35.3 31.9C35.3 31.3 34.8 30.7 34.1 30.7C33.5 30.7 32.9 31.2 32.9 31.9C32.9 32.6 33.5 33.1 34.1 33.1ZM34.1 5.2C34.7 5.2 35.3 4.7 35.3 4C35.3 3.4 34.8 2.8 34.1 2.8C33.5 2.8 32.9 3.3 32.9 4C32.9 4.7 33.5 5.2 34.1 5.2ZM36.5 16.8C37.1 16.8 37.7 16.3 37.7 15.6C37.7 15 37.2 14.4 36.5 14.4C35.9 14.4 35.3 14.9 35.3 15.6C35.3 16.3 35.8 16.8 36.5 16.8ZM7.1 4.6C7.7 4.6 8.3 4.1 8.3 3.4C8.3 2.7 7.7 2.3 7.1 2.3C6.5 2.3 5.9 2.8 5.9 3.5C5.9 4.2 6.4 4.6 7.1 4.6ZM21.5 15.4C22 14.9 22.7 14.9 23.2 15.4C23.7 15.9 23.7 16.6 23.2 17L20.2 20C19.7 20.5 19 20.5 18.5 20L16.7 18.3C16.2 17.8 16.2 17.1 16.7 16.7C17.2 16.2 17.9 16.2 18.4 16.7L19.3 17.6L21.5 15.4Z" fill="white"/>
</mask>
<g mask="url(#mask0)">
<path d="M11.8 18V14.8L6.8 13.3C6.3 13.2 6 12.7 6 12.2V6.8C4.5 6.3 3.5 5 3.5 3.5C3.5 1.6 5.1 0 7.1 0C9.1 0 10.6 1.6 10.6 3.5C10.6 5 9.6 6.3 8.2 6.8V11.4L11.7 12.4V11C11.7 10.5 12 10.1 12.4 9.9L19.5 7C19.8 6.9 20.1 6.9 20.4 7L22.1 7.7L24.8 3.4C25 3.1 25.4 2.9 25.8 2.9H30.7C31.2 1.5 32.5 0.6 34 0.6C35.9 0.6 37.5 2.2 37.5 4.1C37.5 6 35.9 7.6 34 7.6C32.5 7.6 31.2 6.6 30.7 5.3H26.4L24.2 8.7L27.4 10C27.8 10.2 28.1 10.6 28.1 11.1V18.6H30.6L32.9 16.8C32.8 16.5 32.7 16.1 32.7 15.7C32.7 13.8 34.3 12.2 36.2 12.2C38.1 12.2 39.7 13.8 39.7 15.7C39.7 17.6 38.1 19.2 36.2 19.2C35.5 19.2 34.8 19 34.3 18.6L31.7 20.7C31.5 20.9 31.2 21 31 21H27.9C27.5 22.8 26.5 24.4 24.9 25.4L23.6 26.3L26.4 30.9H30.6C31.1 29.5 32.4 28.6 33.9 28.6C35.8 28.6 37.4 30.2 37.4 32.1C37.4 34 35.8 35.6 33.9 35.6C32.4 35.6 31.1 34.6 30.6 33.3H25.7C25.3 33.3 24.9 33.1 24.7 32.7L21.6 27.7L20.4 28.5C20 28.8 19.5 28.8 19.1 28.5L16.4 26.7L13 30.6C13.4 31.1 13.6 31.8 13.6 32.5C13.6 34.4 12 36 10.1 36C8.2 36 6.6 34.4 6.6 32.5C6.6 30.6 8.2 29 10.1 29C10.5 29 10.8 29.1 11.2 29.2L14.8 25.2C13.2 24 12.1 22.3 11.9 20.3H9.1L6.9 21.6C7 21.9 7 22.3 7 22.6C7 24.5 5.4 26.1 3.5 26.1C1.6 26.1 0 24.6 0 22.6C0 20.7 1.6 19.1 3.5 19.1C4.2 19.1 4.9 19.3 5.5 19.7L8.2 18.1C8.4 18.1 8.6 18 8.8 18H11.8ZM14.1 11.8V19.5C14.1 21.1 14.9 22.5 16.2 23.4L20 25.9L23.8 23.4C25.1 22.5 25.9 21.1 25.9 19.5V11.8L20 9.4L14.1 11.8ZM10 33.7C10.6 33.7 11.2 33.2 11.2 32.5C11.2 31.9 10.7 31.3 10 31.3C9.4 31.3 8.8 31.8 8.8 32.5C8.8 33.2 9.4 33.7 10 33.7ZM3.5 23.8C4.1 23.8 4.7 23.3 4.7 22.6C4.7 22 4.2 21.4 3.5 21.4C2.9 21.4 2.3 21.9 2.3 22.6C2.4 23.3 2.9 23.8 3.5 23.8ZM34.1 33.1C34.7 33.1 35.3 32.6 35.3 31.9C35.3 31.3 34.8 30.7 34.1 30.7C33.5 30.7 32.9 31.2 32.9 31.9C32.9 32.6 33.5 33.1 34.1 33.1ZM34.1 5.2C34.7 5.2 35.3 4.7 35.3 4C35.3 3.4 34.8 2.8 34.1 2.8C33.5 2.8 32.9 3.3 32.9 4C32.9 4.7 33.5 5.2 34.1 5.2ZM36.5 16.8C37.1 16.8 37.7 16.3 37.7 15.6C37.7 15 37.2 14.4 36.5 14.4C35.9 14.4 35.3 14.9 35.3 15.6C35.3 16.3 35.8 16.8 36.5 16.8ZM7.1 4.6C7.7 4.6 8.3 4.1 8.3 3.4C8.3 2.7 7.7 2.3 7.1 2.3C6.5 2.3 5.9 2.8 5.9 3.5C5.9 4.2 6.4 4.6 7.1 4.6ZM21.5 15.4C22 14.9 22.7 14.9 23.2 15.4C23.7 15.9 23.7 16.6 23.2 17L20.2 20C19.7 20.5 19 20.5 18.5 20L16.7 18.3C16.2 17.8 16.2 17.1 16.7 16.7C17.2 16.2 17.9 16.2 18.4 16.7L19.3 17.6L21.5 15.4Z" fill="white"/>
</g>
</svg>
