<svg width="34" height="34" viewBox="0 0 34 34" fill="none" xmlns="http://www.w3.org/2000/svg">
<g clip-path="url(#clip0)">
<path d="M5.10001 31.9L5.20001 31.8V23.1V23H5.10001H2.10001H2.00001V23.1V31.8V31.9H2.10001H5.10001V31.9ZM14 31.9H14.1V31.8V19.7V19.6H14H11.1H11V19.7V31.8V31.9H11.1H14ZM22.9 31.9H23V31.8V16.8V16.7H22.9H20H19.9V16.8V31.8V31.9H20H22.9ZM31.9 31.9H32V31.8V11.2V11.1H31.9H29H28.9V11.2V31.8V31.9H29H31.9V31.9ZM2.50001 16.7H2.40001C2.20001 16.7 1.90001 16.6 1.80001 16.5C1.60001 16.3 1.50001 16.1 1.50001 15.9C1.50001 15.8 1.50001 15.6 1.50001 15.5C1.50001 15.4 1.60001 15.3 1.70001 15.2C1.80001 15.1 1.90001 15 2.00001 15C2.10001 14.9 2.20001 14.9 2.40001 14.9C2.40001 14.9 2.40001 14.9 2.50001 14.9H2.60001C2.70001 14.9 2.90001 14.9 3.10001 14.8C3.60001 14.7 4.20001 14.6 5.00001 14.4C6.60001 14 8.90001 13.5 11.5 12.6C16.7 10.8 23.2 7.70001 28.5 2.40001L28.7 2.20001H28.5H26C25.7 2.20001 25.5 2.10001 25.3 1.90001C25.1 1.60001 25 1.40001 25 1.10001C25 0.800006 25.1 0.600006 25.3 0.400006C25.5 0.200006 25.7 0.100006 26 0.100006H31.1C31.4 0.100006 31.6 0.200006 31.8 0.400006C31.9 0.600006 32 0.800006 32 1.10001V6.30001C32 6.60001 31.9 6.80001 31.7 7.00001C31.5 7.20001 31.3 7.30001 31 7.30001C30.7 7.30001 30.5 7.20001 30.3 7.00001C30.1 6.80001 30 6.60001 30 6.30001V3.60001V3.30001L29.8 3.50001C19 14.6 3.30001 16.6 2.50001 16.7ZM1.10001 21H6.20001C6.50001 21 6.70001 21.1 6.90001 21.3C7.00001 21.5 7.10001 21.8 7.10001 22V32.9C7.10001 33.2 7.00001 33.4 6.80001 33.6C6.60001 33.8 6.40001 33.9 6.10001 33.9H1.10001C0.800006 33.9 0.600006 33.8 0.400006 33.6C0.200006 33.4 0.100006 33.2 0.100006 32.9V22C0.100006 21.7 0.200006 21.5 0.400006 21.3C0.600006 21.1 0.800006 21 1.10001 21ZM10 17.6H15.1C15.4 17.6 15.6 17.7 15.8 17.9C16 18.1 16.1 18.3 16.1 18.6V32.9C16.1 33.2 16 33.4 15.8 33.6C15.6 33.8 15.4 33.9 15.1 33.9H10C9.70001 33.9 9.50001 33.8 9.30001 33.6C9.10001 33.4 9.00001 33.2 9.00001 32.9V18.6C9.00001 18.3 9.10001 18.1 9.30001 17.9C9.50001 17.7 9.70001 17.6 10 17.6ZM18.9 14.7H24C24.1 14.7 24.3 14.7 24.4 14.8C24.5 14.8 24.6 14.9 24.7 15C24.8 15.1 24.9 15.2 24.9 15.3C24.9 15.4 25 15.5 25 15.7V32.9C25 33 25 33.2 24.9 33.3C24.9 33.4 24.8 33.5 24.7 33.6C24.6 33.7 24.5 33.8 24.4 33.8C24.3 33.8 24.2 33.9 24 33.9H18.9C18.6 33.9 18.4 33.8 18.2 33.6C18 33.4 17.9 33.2 17.9 32.9V15.7C17.9 15.4 18 15.2 18.2 15C18.4 14.9 18.7 14.7 18.9 14.7ZM27.9 9.20001H33C33.3 9.20001 33.5 9.30001 33.7 9.50001C33.9 9.70001 34 9.90001 34 10.2V32.9C34 33.2 33.9 33.4 33.7 33.6C33.5 33.8 33.3 33.9 33 33.9H27.9C27.6 33.9 27.4 33.8 27.2 33.6C27 33.4 26.9 33.2 26.9 32.9V10.1C26.9 9.80001 27 9.60001 27.2 9.40001C27.4 9.30001 27.6 9.20001 27.9 9.20001Z" fill="white"/>
</g>
<defs>
<clipPath id="clip0">
<rect width="34" height="34" fill="white"/>
</clipPath>
</defs>
</svg>
