<svg width="38" height="38" viewBox="0 0 38 38" fill="none" xmlns="http://www.w3.org/2000/svg">
<path d="M19.2089 21.9186C20.7787 21.9186 22.0514 20.6455 22.0514 19.0761C22.0514 17.5068 20.7783 16.234 19.2089 16.234C18.5111 16.234 17.8717 16.4864 17.3763 16.9045L19.0001 19L16.4842 18.2706C16.4088 18.5264 16.3672 18.7964 16.3672 19.0761C16.3672 20.6459 17.6399 21.9186 19.2089 21.9186Z" fill="white"/>
<path d="M29.4158 18.724C26.8253 15.205 22.9766 13.1875 18.8558 13.1875C14.919 13.1875 11.1806 15.0599 8.60025 18.3246L8.229 18.7949L8.58413 19.2767C11.175 22.7954 15.0244 24.8125 19.1438 24.8125C23.0813 24.8125 26.8196 22.9405 29.4 19.6754L29.7713 19.2059L29.4158 18.724ZM19.1516 23.0223C16.9755 23.0223 15.2055 21.2519 15.2055 19.0765C15.2055 18.6842 15.264 18.3059 15.3716 17.9485L14.4664 17.686C14.3351 18.1274 14.2635 18.5931 14.2635 19.0765C14.2635 20.5499 14.922 21.8691 15.9563 22.7665C13.7633 22.0979 11.7735 20.7452 10.2214 18.829C11.8114 17.0009 13.8285 15.7296 16.0215 15.1371L16.1036 15.2605L16.68 16.0045C17.3569 15.4585 18.2168 15.1307 19.1528 15.1307C21.3281 15.1307 23.0981 16.9004 23.0981 19.0769C23.0974 21.2523 21.3278 23.0223 19.1516 23.0223ZM22.3658 22.7493C23.3895 21.8526 24.0401 20.5401 24.0401 19.0765C24.0401 17.5592 23.3445 16.2014 22.2559 15.304C24.3653 15.9936 26.2778 17.317 27.7796 19.1718C26.2826 20.8915 24.4091 22.1163 22.3658 22.7493Z" fill="white"/>
<path d="M19 37C9.07488 37 1 28.9255 1 19C1 9.07488 9.07488 1 19 1C28.9255 1 37 9.07488 37 19C37 28.9255 28.9255 37 19 37ZM19 2.125C9.69513 2.125 2.125 9.69513 2.125 19C2.125 28.3049 9.69513 35.875 19 35.875C28.3049 35.875 35.875 28.3049 35.875 19C35.875 9.69513 28.3049 2.125 19 2.125Z" fill="white" stroke="white" stroke-width="1.5"/>
<path d="M15.765 13.9275L8 5.15744L8.21828 5L16 14L15.765 13.9275Z" fill="white" stroke="white" stroke-width="1.5"/>
<path d="M18.6552 18.9953L2.33105 13.8806L2.24696 14.149L18.5711 19.2637L18.6552 18.9953Z" fill="white" stroke="white" stroke-width="1.5"/>
</svg>
