<svg width="58" xmlns="http://www.w3.org/2000/svg" viewBox="0 0 91 106"><g fill-rule="nonzero" fill="none"><path fill="#0A0A0A" d="M90.595 26.436l.13 51.899-45.265 26.08-.13-51.9z"/><path fill="#4758F5" d="M45.33 52.516L.325 26.436 45.59.356l45.005 26.08z"/><path fill="#B0E298" d="M45.46 104.414L.455 78.335l-.13-51.899 45.005 26.08z"/><path fill="#0A0A0A" d="M11.251 72.157l-.13-39.542 34.47-19.836.13 39.542z"/><path fill="#4758F5" d="M45.72 52.256l34.274 19.836-34.469 19.835-34.274-19.835 34.47-19.836z"/><path fill="#B0E298" d="M45.59 12.779l34.274 19.836.13 39.542L45.72 52.32l-.13-39.542z"/><path fill="#0A0A0A" d="M67.767 39.378l.066 25.625L45.46 77.88l-.065-25.624z"/><path fill="#4758F5" d="M45.395 52.256L23.218 39.378 45.59 26.501l22.177 12.877z"/><path fill="#B0E298" d="M45.46 77.945L23.218 65.068v-25.69L45.46 52.256z"/></g></svg>