<svg fill="none" xmlns="http://www.w3.org/2000/svg" viewBox="0 0 216 256"><path fill-rule="evenodd" clip-rule="evenodd" d="M108 1.42l.255.15 106.5 63 .245.145v126.57l-.245.145-106.5 63-.255.151-.255-.151-106.5-63-.245-.145V64.715l.245-.145 106.5-63 .255-.15zM2 66.08v124.634l105.5 62.408v-29.837l-81.254-47.855-.246-.145V80.285L2 66.081zm212 124.634l-105.5 62.408v-29.837l81.254-47.855.246-.145V80.283l24-14.4v124.832zM189.498 79.418l24.025-14.415L108.5 2.877v28.837l80.998 47.704zM2.309 65.102L107.5 2.877v28.837l-81 47.705L2.31 65.102zM2 65.5l.196-.33-.196.115v.215zm25 14.786v94.428l81 47.706 81-47.706V80.286L108 32.58 27 80.286zm81.495 46.636L56.003 96.997l52.492-30.416 50.53 30.415-50.53 29.926zm-.246-61.355l-53.5 31 .001.2-.005-.003L54 97.2v62.5l.252.434 54 30.8.748-.434v-.216l51.756-30.855L161 159V97l-.742-.425v-.003l-51.5-31-.509-.005zM108 189.64v-61.846l-53-29.74v61.357l53 30.229zm1-.519l51-30.404V97.873l-51 29.913v61.334z" fill="#fff"/><path d="M108.255 1.57l.509-.861-.509.86zM108 1.42l.509-.862-.509-.3-.509.3.509.861zm106.755 63.15l-.51.86.51-.86zm.245.145h1v-.57l-.491-.29-.509.86zm0 126.57l.509.861.491-.291v-.57h-1zm-.245.145l-.51-.86.51.86zm-106.5 63l.509.861-.509-.861zm-.255.151l-.509.861.509.301.509-.301-.509-.861zm-.255-.151l-.509.861.509-.861zm-106.5-63l-.509.861.51-.861zM1 191.285H0v.57l.49.291.51-.861zm0-126.57l-.51-.86-.49.29v.57h1zm.245-.145l-.509-.861.51.86zm106.5-63l-.509-.861.509.86zM2 190.715H1v.57l.49.291.51-.861zM2 66.081l.51-.86L1 64.326v1.754h1zm105.5 187.042l-.509.861 1.509.893v-1.754h-1zm0-29.837h1v-.572l-.493-.29-.507.862zm-81.254-47.855l.508-.862-.508.862zm-.246-.145h-1v.571l.492.29.508-.861zm0-95h1v-.571l-.49-.29-.51.86zm82.5 172.837h-1v1.754l1.509-.893-.509-.861zM214 190.715l.509.861.491-.291v-.57h-1zm-105.5 32.571l-.507-.862-.493.29v.572h1zm81.254-47.855l-.508-.862.508.862zm.246-.145l.507.861.493-.29v-.571h-1zm0-95.003l-.514-.857-.486.29v.567h1zm24-14.4h1v-1.766l-1.514.909.514.857zm-.477-.88l.515.858 1.439-.864-1.445-.855-.509.861zm-24.025 14.415l-.508.862.512.302.51-.306-.514-.858zM108.5 2.877l.509-.861-1.509-.893v1.754h1zm0 28.837h-1v.572l.493.29.507-.862zm-1-28.837h1V1.123l-1.509.893.509.86zM2.31 65.102l-.51-.86-1.454.86 1.454.86.51-.86zM107.5 31.714l.507.862.493-.29v-.572h-1zm-81 47.705l-.509.86.508.302.51-.3-.508-.862zM2.197 65.17l.86.51-1.37-1.37.51.86zM2 65.5H1v3.653l1.86-3.144L2 65.5zm0-.215l-.51-.86-.49.29v.57h1zm25 109.429h-1v.572l.492.29.508-.862zm0-94.428l-.508-.862-.492.29v.572h1zm81 142.134l-.507.861.507.299.507-.299-.507-.861zm81-47.706l.507.862.493-.29v-.572h-1zm0-94.428h1v-.572l-.493-.29-.507.862zM108 32.58l.507-.861-.507-.3-.507.3.507.861zM56.003 96.997l-.501-.866-1.505.873 1.511.861.495-.868zm52.492 29.925l-.495.868.505.288.5-.296-.51-.86zm0-60.341l.516-.857-.506-.305-.511.296.501.866zm50.53 30.415l.509.86 1.441-.852-1.435-.864-.515.856zm-104.276-.429l-.501-.865-.5.29.001.579 1-.004zm53.5-31l.009-1-.274-.002-.236.137.501.865zm-53.499 31.2l-.49.872 1.496.84-.006-1.716-1 .004zm-.005-.003l.49-.872-.5-.28-.496.289.506.863zM54 97.2l-.505-.863-.495.29v.573h1zm0 62.5h-1v.269l.135.233.865-.502zm.252.434l-.864.503.135.232.234.134.495-.869zm54 30.8l-.495.869.5.285.498-.289-.503-.865zm.748-.434l.502.865.498-.289v-.576h-1zm0-.216l-.512-.859-.488.291v.568h1zm51.756-30.855l.512.859.227-.135.131-.23-.87-.494zM161 159l.869.494.131-.23V159h-1zm0-62h1v-.58l-.503-.288L161 97zm-.742-.425l-1-.005-.003.583.506.29.497-.868zm0-.003l1 .004.002-.568-.486-.293-.516.857zm-51.5-31l.516-.857-.235-.141-.273-.002-.008 1zM108 189.639l-.495.869 1.495.853v-1.722h-1zm0-61.846h1v-.586l-.511-.286-.489.872zm-53-29.74l.49-.871-1.49-.836v1.708h1zm0 61.357h-1v.58l.505.288.495-.868zm105-.694l.512.859.488-.291v-.568h-1zm-51 30.404h-1v1.76l1.512-.901-.512-.859zm51-91.247h1v-1.746l-1.506.883.506.863zm-51 29.913l-.506-.862-.494.29v.572h1zM108.764.709l-.255-.15-1.018 1.72.254.151L108.764.71zm106.5 63l-106.5-63-1.019 1.721 106.5 63 1.019-1.721zm.245.145l-.245-.145-1.019 1.721.246.145 1.018-1.72zM216 65v-.285h-2V65h2zm0 126V65h-2v126h2zm0 .285V191h-2v.285h2zm-.736 1.006l.245-.145-1.018-1.722-.246.146 1.019 1.721zm-106.5 63l106.5-63-1.019-1.721-106.5 63 1.019 1.721zm-.255.151l.255-.151-1.019-1.721-.254.15 1.018 1.722zm-1.273-.151l.255.151 1.018-1.722-.254-.15-1.019 1.721zm-106.5-63l106.5 63 1.019-1.721-106.5-63-1.019 1.721zm-.245-.145l.245.145 1.019-1.721-.246-.146-1.018 1.722zM0 191v.285h2V191H0zM0 65v126h2V65H0zm0-.285V65h2v-.285H0zm.736-1.006l-.245.145 1.018 1.722.246-.146L.736 63.71zm106.5-63l-106.5 63 1.019 1.721 106.5-63L107.236.71zm.255-.15l-.255.15 1.019 1.721.254-.15-1.018-1.722zM3 190.714V66.081H1v124.634h2zm105.009 61.548l-105.5-62.409-1.018 1.722 105.5 62.408 1.018-1.721zm-1.509-28.977v29.837h2v-29.837h-2zm-80.761-46.994l81.254 47.855 1.014-1.723-81.253-47.855-1.015 1.723zm-.247-.145l.247.145 1.015-1.723-.247-.145-1.015 1.723zM25 175v.286h2V175h-2zm0-94.715V175h2V80.285h-2zM1.49 66.942l24 14.204 1.02-1.722-24-14.204-1.02 1.722zM109.01 253.984l105.5-62.408-1.018-1.722-105.5 62.409 1.018 1.721zm-1.509-30.698v29.837h2v-29.837h-2zm81.746-48.717l-81.253 47.855 1.014 1.723 81.254-47.855-1.015-1.723zm.247-.145l-.247.145 1.015 1.723.246-.145-1.014-1.723zM189 175v.286h2V175h-2zm0-94.717V175h2V80.283h-2zm24.486-15.257l-24 14.4 1.028 1.715 24-14.4-1.028-1.715zM215 190.715V65.883h-2v124.832h2zm-1.991-126.57l-24.026 14.416 1.029 1.715 24.026-14.415-1.029-1.715zM107.991 3.738l105.023 62.127 1.018-1.722L109.009 2.016l-1.018 1.721zm1.509 27.977V2.877h-2v28.837h2zm80.505 46.843l-80.998-47.705-1.014 1.724L188.99 80.28l1.015-1.723zM106.991 2.016L1.801 64.241l1.018 1.722 105.19-62.226-1.018-1.721zm1.509 29.698V2.877h-2v28.837h2zM27.008 80.281l80.999-47.705-1.014-1.724-81 47.706 1.015 1.723zM1.8 65.963L25.991 80.28l1.019-1.721L2.819 64.242 1.8 65.962zm-.465-1.303l-.196.33 1.722 1.02.195-.331-1.72-1.019zm1.174 1.486l.196-.116-1.018-1.721-.196.115 1.018 1.722zM3 65.5v-.215H1v.215h2zm25 109.214V80.286h-2v94.428h2zm80.507 46.844l-81-47.705-1.015 1.723 81.001 47.705 1.014-1.723zm79.986-47.705l-81 47.705 1.014 1.723 81-47.705-1.014-1.723zM188 80.286v94.428h2V80.286h-2zm-80.507-46.844l81 47.705 1.014-1.723-81-47.705-1.014 1.723zM27.507 81.147l81-47.705-1.014-1.723-81 47.705 1.015 1.723zm28.001 16.718L108 127.79l.99-1.737-52.491-29.925-.99 1.737zm52.486-32.15L55.502 96.131l1.003 1.73 52.492-30.415-1.003-1.73zM159.54 96.14l-50.529-30.416-1.032 1.713 50.53 30.416 1.031-1.713zm-50.535 31.642l50.529-29.925-1.019-1.72-50.529 29.924 1.019 1.721zm-53.754-30.35l53.5-31-1.003-1.73-53.5 31 1.003 1.73zm.499-.669v-.2l-2 .008v.2l2-.008zm-1.495.873l.005.003.98-1.744-.006-.003-.979 1.744zm.25.427l.745-.436-1.01-1.726-.745.436 1.01 1.726zM55 159.7V97.2h-2v62.5h2zm.117-.068l-.252-.434-1.73 1.004.253.435 1.729-1.005zm53.631 30.434l-54-30.8-.991 1.737 54 30.8.991-1.737zm-.25-.431l-.748.435 1.005 1.729.747-.434-1.004-1.73zm-.498.649v.216h2v-.216h-2zm52.244-31.713l-51.756 30.854 1.024 1.718 51.756-30.855-1.024-1.717zm-.113-.065l-.244.43 1.739.987.243-.429-1.738-.988zM160 97v62h2V97h-2zm-.239.443l.742.425.994-1.736-.742-.425-.994 1.736zm-.503-.876v.003l2 .01v-.004l-2-.009zm-51.016-30.139l51.5 31 1.032-1.713-51.5-31-1.032 1.713zm-.001.14l.509.004.016-2-.508-.005-.017 2zM109 189.638v-61.846h-2v61.846h2zm-.511-62.718l-53-29.74-.978 1.745 53 29.739.978-1.744zM54 98.054v61.356h2V98.054h-2zm.505 62.224l53 30.23.99-1.737-53-30.23-.99 1.737zm104.983-2.421l-51 30.404 1.024 1.718 51-30.404-1.024-1.718zM159 97.873v60.843h2V97.873h-2zm-49.494 30.776l51-29.913-1.012-1.726-51 29.914 1.012 1.725zm-1.506-.863v61.334h2v-61.334h-2z" fill="#fff"/></svg>