<svg fill="none" xmlns="http://www.w3.org/2000/svg" viewBox="0 0 458 543"><g opacity=".3" fill="#fff"><path fill-rule="evenodd" clip-rule="evenodd" d="M228.932 1.925l.255.15 227.432 134.538.245.145v269.646l-.245.145-227.432 134.537-.255.151-.254-.151L1.245 406.549 1 406.404V136.758l.245-.145L228.678 2.076l.254-.15zM2 137.33v268.504l226.432 133.946v-65.038L54.634 372.381l-.246-.145V169.361L2.313 138.542l.51-.861 52.066 30.815 173.543-102.21V3.383L2 137.329zm453.864 268.504L229.432 539.779v-65.038l173.798-102.36.247-.145V169.359l52.387-31.432v267.906zm-52.89-237.338l52.414-31.448L229.432 3.383v62.903l173.542 102.209zm-347.586.867v202.302l173.544 102.211 173.545-102.211V169.362L228.932 67.152 55.388 169.362zm174.607 100.573l-113.242-64.558 113.242-65.617 109.009 65.617-109.009 64.558zm-.246-131.188l-114.25 66.2.003.747-.575-.323-.745.436v133.47l.253.434 115.317 65.774.748-.434v-.784l110.803-66.056.244-.429V205.38l-.753-.431-.558.327.001-.324-109.979-66.201-.509-.004zm.751 264.356l110.047-65.605V206.253L230.5 270.8v132.303zm-1-132.297l-114.318-64.145v132.325L229.5 404.19V270.806z"/><path d="M229.187 2.076l.509-.86-.509.86zm-.255-.15l.509-.861-.509-.302-.509.302.509.86zm227.687 134.687l.509-.86-.509.86zm.245.145h1v-.57l-.49-.29-.51.86zm0 269.646l.51.86.49-.29v-.57h-1zm-.245.145l-.509-.861.509.861zM229.187 541.086l.509.861-.509-.861zm-.255.151l-.509.86.509.301.509-.301-.509-.86zm-.254-.151l-.509.861.509-.861zM1.245 406.549l.51-.861-.51.861zM1 406.404H0v.57l.49.29.51-.86zm0-269.646l-.51-.86-.49.29v.57h1zm.245-.145l-.509-.86.51.86zM228.678 2.076l.509.86-.509-.86zM2 405.833H1v.571l.49.29.51-.861zm0-268.504l-.51-.861-.49.29v.571h1zm226.432 402.45l-.509.861 1.509.892v-1.753h-1zm0-65.038h1v-.572l-.492-.29-.508.862zM54.634 372.381l.508-.862-.508.862zm-.246-.145h-1v.572l.492.29.508-.862zm0-202.875h1v-.57l-.49-.29-.51.86zM2.313 138.542l-.86-.51-.51.861.86.509.51-.86zm.51-.861l.509-.86-.86-.51-.51.861.86.509zm52.066 30.815l-.51.86.508.301.509-.3-.508-.861zm173.543-102.21l.508.861.492-.29v-.571h-1zm0-62.903h1V1.63l-1.509.892.509.86zm1 536.396h-1v1.753l1.509-.892-.509-.861zm226.432-133.946l.51.861.49-.29v-.571h-1zm-226.432 68.908l-.507-.862-.493.29v.572h1zm173.798-102.36l-.507-.862.507.862zm.247-.145l.507.862.493-.29v-.572h-1zm0-202.877l-.515-.857-.485.291v.566h1zm52.387-31.432h1v-1.766l-1.514.908.514.858zm-.476-.88l.514.857 1.439-.863-1.444-.855-.509.861zm-52.414 31.448l-.507.861.512.302.51-.306-.515-.857zM229.432 3.383l.509-.86-1.509-.893v1.753h1zm0 62.903h-1v.571l.493.29.507-.861zM55.388 371.664h-1v.572l.492.29.508-.862zm0-202.302l-.508-.862-.492.291v.571h1zm173.544 304.513l-.507.861.507.299.508-.299-.508-.861zm173.545-102.211l.507.862.493-.29v-.572h-1zm0-202.302h1v-.572l-.493-.29-.507.862zM228.932 67.152l.508-.862-.508-.299-.507.3.507.86zM116.753 205.377l-.501-.866-1.505.873 1.511.861.495-.868zm113.242 64.558l-.495.869.505.288.5-.297-.51-.86zm0-130.175l.516-.857-.506-.305-.511.297.501.865zm109.009 65.617l.509.86 1.441-.853-1.435-.864-.515.857zm-223.505-.43l-.501-.865-.501.29.002.579 1-.004zm114.25-66.2l.009-1-.274-.003-.236.137.501.866zm-114.247 66.947l-.489.872 1.495.839-.006-1.715-1 .004zm-.575-.323l.489-.872-.5-.281-.494.29.505.863zm-.745.436l-.505-.863-.495.29v.573h1zm0 133.47h-1v.269l.136.233.864-.502zm.253.434l-.865.502.135.233.234.134.496-.869zm115.317 65.774l-.495.869.5.285.498-.289-.503-.865zm.748-.434l.502.864.498-.289v-.575h-1zm0-.784l-.512-.859-.488.291v.568h1zm110.803-66.056l.512.859.227-.135.13-.23-.869-.494zm.244-.429l.869.494.131-.23v-.264h-1zm0-132.402h1v-.58l-.503-.288-.497.868zm-.753-.431l.497-.868-.503-.288-.5.293.506.863zm-.558.327l-1-.003-.007 1.753 1.513-.887-.506-.863zm.001-.324l1 .003.002-.567-.486-.293-.516.857zm-109.979-66.201l.516-.857-.235-.141-.273-.002-.008 1zm110.289 198.747l.512.859.488-.291v-.568h-1zM230.5 403.103h-1v1.76l1.512-.901-.512-.859zm110.047-196.85h1v-1.746l-1.506.883.506.863zM230.5 270.8l-.506-.863-.494.29v.573h1zm-1 .006h1v-.586l-.511-.286-.489.872zm-114.318-64.145l.49-.872-1.49-.836v1.708h1zm0 132.325h-1v.581l.505.288.495-.869zM229.5 404.19l-.495.868 1.495.853v-1.721h-1zm.196-402.975l-.255-.15-1.018 1.721.255.15 1.018-1.72zm227.432 134.538L229.696 1.215l-1.018 1.722L456.11 137.474l1.018-1.721zm.246.145l-.246-.145-1.018 1.721.245.145 1.019-1.721zm.49 1.146v-.286h-2v.286h2zm0 269.074V137.044h-2v269.074h2zm0 .286v-.286h-2v.286h2zm-.736 1.005l.246-.145-1.019-1.721-.245.145 1.018 1.721zM229.696 541.947l227.432-134.538-1.018-1.721-227.432 134.537 1.018 1.722zm-.255.15l.255-.15-1.018-1.722-.255.151 1.018 1.721zm-1.272-.15l.254.15 1.018-1.721-.254-.151-1.018 1.722zM.736 407.409L228.17 541.947l1.018-1.722L1.755 405.688l-1.019 1.721zm-.245-.145l.245.145 1.019-1.721-.246-.145-1.018 1.721zM0 406.118v.286h2v-.286H0zm0-269.074v269.074h2V137.044H0zm0-.286v.286h2v-.286H0zm.736-1.005l-.245.145 1.018 1.721.246-.145-1.019-1.721zM228.17 1.215L.736 135.753l1.019 1.721L229.187 2.937l-1.018-1.722zm.254-.15l-.254.15 1.018 1.722.254-.151-1.018-1.721zM3 405.833V137.329H1v268.504h2zm225.941 133.085L2.509 404.973l-1.018 1.721L227.923 540.64l1.018-1.722zm-1.509-64.177v65.038h2v-65.038h-2zM54.127 373.243l173.798 102.359 1.015-1.723-173.798-102.36-1.015 1.724zm-.247-.145l.247.145 1.015-1.724-.247-.145-1.015 1.724zm-.492-1.148v.286h2v-.286h-2zm0-202.589V371.95h2V169.361h-2zM1.804 139.402l52.075 30.82 1.018-1.721-52.075-30.82-1.018 1.721zm.158-2.23l-.51.86 1.722 1.019.509-.861-1.721-1.018zm53.436 30.463L3.332 136.821l-1.019 1.721 52.066 30.814 1.019-1.721zm172.527-102.21L54.381 167.633l1.015 1.723L228.94 67.147l-1.015-1.723zm-.493-62.042v62.903h2V3.383h-2zM2.509 138.189L228.941 4.244l-1.018-1.722L1.491 136.468l1.018 1.721zM229.941 540.64l226.433-133.946-1.019-1.721-226.432 133.945 1.018 1.722zm-1.509-65.899v65.038h2v-65.038h-2zm174.291-103.222l-173.798 102.36 1.015 1.723 173.798-102.359-1.015-1.724zm.246-.145l-.246.145 1.015 1.724.246-.145-1.015-1.724zm-.492.576v.286h2v-.286h-2zm0-202.591V371.95h2V169.359h-2zm52.873-32.29l-52.388 31.433 1.029 1.715 52.388-31.433-1.029-1.715zm1.514 268.764V137.927h-2v267.906h2zm-1.991-269.644l-52.413 31.448 1.029 1.715 52.413-31.448-1.029-1.715zM228.923 4.244l225.955 133.663 1.019-1.721L229.941 2.522l-1.018 1.722zm1.509 62.042V3.383h-2v62.903h2zm173.05 101.347L229.94 65.424l-1.015 1.723 173.542 102.209 1.015-1.723zM56.388 371.664V169.362h-2v202.302h2zM229.44 473.013L55.895 370.803l-1.015 1.723 173.545 102.21 1.015-1.723zm172.529-102.21l-173.544 102.21 1.015 1.723 173.544-102.21-1.015-1.723zm-.492-201.441v202.302h2V169.362h-2zM228.425 68.014l173.544 102.21 1.015-1.724L229.44 66.29l-1.015 1.724zm-172.53 102.21L229.44 68.014l-1.015-1.724L54.88 168.5l1.015 1.724zm60.363 36.021L229.5 270.804l.99-1.738-113.241-64.558-.991 1.737zm113.236-67.35l-113.242 65.616 1.003 1.731 113.242-65.617-1.003-1.73zm110.025 65.625l-109.008-65.617-1.032 1.714 109.009 65.616 1.031-1.713zm-109.014 66.275l109.008-64.558-1.019-1.721-109.008 64.559 1.019 1.72zm-114.504-64.982l114.25-66.201-1.003-1.731-114.25 66.201 1.003 1.731zm.501-.123l-.003-.746-2 .007.003.746 2-.007zm-2.064.553l.575.323.978-1.744-.575-.323-.978 1.744zm.25.427l.744-.436-1.01-1.726-.745.436 1.011 1.726zm.494 132.607v-133.47h-2v133.47h2zm.117-.068l-.252-.435-1.729 1.005.252.434 1.729-1.004zm114.949 65.407L114.93 338.842l-.991 1.738 115.318 65.774.991-1.738zm-.25-.43l-.748.434 1.005 1.73.747-.435-1.004-1.729zm-.498.081v.784h2v-.784h-2zm111.291-66.915l-110.803 66.056 1.024 1.718 110.803-66.056-1.024-1.718zm-.114-.064l-.244.43 1.739.987.244-.429-1.739-.988zm-.13-131.908v132.402h2V205.38h-2zm-.25.437l.753.431.994-1.736-.753-.431-.994 1.736zm.445.322l.558-.328-1.012-1.725-.558.328 1.012 1.725zm-1.505-1.191l-.001.325 2 .007.001-.325-2-.007zm-109.495-65.341l109.979 66.201 1.032-1.713-109.979-66.201-1.032 1.713zm-.001.139l.509.005.016-2-.508-.004-.017 1.999zm110.294 196.893l-110.047 65.605 1.024 1.718 110.047-65.605-1.024-1.718zm-.488-130.386v131.245h2V206.253h-2zm-108.541 65.409l110.047-64.546-1.012-1.726-110.047 64.547 1.012 1.725zm-1.506-.862v132.303h2V270.8h-2zm.489-.866l-114.317-64.145-.979 1.744 114.318 64.145.978-1.744zm-115.807-63.273v132.325h2V206.661h-2zm.505 133.194l114.318 65.203.99-1.737-114.317-65.203-.991 1.737zM230.5 404.19v-.207h-2v.207h2zm0-.207V270.806h-2v133.177h2z"/></g></svg>