<svg xmlns="http://www.w3.org/2000/svg" overflow="visible" viewBox="0 0 600.4 118.2"><style>.st1{fill-rule:evenodd;clip-rule:evenodd;fill:#00699e}</style><path d="M374.5 26.7c-16.7 0-31.3 9-39.2 22.4-.2.3-.4.7-.6 1-.1.2-.3.5-.4.7-3 5.4-8.2 16.7-10.4 20.4-3.8 6.4-7.3 12.5-9.8 15.6-3.4 4.3-7 7.3-11.6 9.7-4.1 2.3-8.4 3.4-12.9 3.4-7.6 0-13.9-2.6-19.3-8.1-5.5-5.4-8.1-11.8-8.1-19.3s2.6-13.8 8.1-19.3c5.4-5.5 11.8-8.1 19.3-8.1 4.6 0 8.9 1.1 13 3.4 2.1 1.2 4.1 2.6 5.7 4.1 1.7 1.6 4 4 5.3 5.8l3.6 5.4 10.2-17.2-1.7-2.2c-4.4-5.5-7.8-8.5-14.2-12-6.9-3.8-14.2-5.7-21.9-5.7-12.5 0-23.4 4.6-32.4 13.6s-13.5 19.8-13.5 32.2c0 12.5 4.5 23.3 13.5 32.3 8.9 8.9 19.8 13.4 32.4 13.4 7.6 0 14.9-1.9 21.8-5.5 3.6-2 6.7-4.4 9.2-6.5 3.8-3.2 8.6-9.9 12.2-15.4.9 2 1.9 3.8 3 5.6 1.9 3.2 4.2 6.2 7 9v-.3c8.2 8 19.4 13 31.8 13 25.2 0 45.6-20.4 45.6-45.6 0-25.4-20.5-45.8-45.7-45.8m0 73.1c-15.1 0-27.4-12.3-27.4-27.4S359.4 45 374.5 45s27.4 12.3 27.4 27.4-12.2 27.4-27.4 27.4" fill="#eb6f00"/><path class="st1" d="M1.9 118c-1.3 0-1.9-.6-1.9-1.9V32.3c0-1.3.6-1.9 1.9-1.9h16.3c1.3 0 1.9.6 1.9 1.7 0 1-.1 8.1 0 11.3 0 1.5.5 2.3.8 2.3.1 0 1.3.8 2.4-.9 3.5-5.6 14-16.4 27-12 4.5 1.5 8.2 4 11.3 6.9s5.5 6.5 7.2 10.6c1.7 4.2 2.5 8.7 2.5 13.7v52.1c0 1.3-.6 1.9-1.9 1.9H51.1c-1.3 0-1.9-.6-1.9-1.9V64c0-3.8-1.3-7.1-3.9-9.7s-5.8-3.9-9.7-3.9c-3.8 0-7.1 1.3-9.8 3.9s-4 5.8-4 9.7v52.1c0 1.3-.6 1.9-1.9 1.9h-18zM159.1 93.9c.8.4 1.1.9 1.1 1.5 0 .4-.3 1.1-.9 2.2s-1.3 2.3-2 3.5c-2.9 4.9-6.8 8.9-11.5 12.1s-11.2 4.8-19.5 4.8c-5.5 0-10.4-.8-14.8-2.5s-8.2-4-11.3-7-5.5-6.6-7.2-10.7-2.5-8.7-2.5-13.7V60.4c0-4 .8-7.9 2.5-12 1.7-4 4.1-7.7 7.2-10.9 3.1-3.3 6.9-5.9 11.3-7.9s9.3-3.1 14.8-3.1c5.4 0 10.2 1 14.6 3.1 4.4 2 8.2 4.7 11.3 7.9 3.1 3.3 5.5 6.9 7.2 10.9s2.5 8 2.5 12v15.5c0 1.3-.6 1.9-1.9 1.9h-45.6c-1.3 0-1.9.6-1.9 1.9v4.4c0 3.7 1.3 6.9 3.9 9.7s5.9 4.1 9.9 4.1c2.6 0 5-.9 7.4-2.6s4.4-4.6 6.2-8.7c.4-.8.9-1.1 1.5-1.1.4 0 1.5.4 3.3 1.3l14.4 7.1zm-21.4-34.5c1.4 0 2.1-.6 2.1-1.7 0-.5-.3-1.4-.8-2.7s-1.3-2.5-2.4-3.7-2.5-2.3-4.1-3.3c-1.7-1-3.7-1.4-6.1-1.4-2.3 0-4.3.4-6 1.3s-3.2 2-4.3 3.3-2 2.5-2.5 3.7-.8 2.2-.8 2.8c0 1.2.7 1.7 2.1 1.7h22.8zM215.4 48.5H228c1.3 0 1.9-.6 1.9-1.9V30.3c0-1.3-.6-1.9-1.9-1.9h-12.6c-1.3 0-1.9-.6-1.9-1.9V13.9c0-1.3-.6-1.9-1.9-1.9h-17.9c-1.4 0-2.1.7-2.1 2.1v12.6c-.1 1-.7 1.6-1.7 1.7h-12.4c-1.3 0-1.9.6-1.9 1.9v16.3c0 1.3.6 1.9 1.9 1.9h12.2c1.3 0 1.9.6 1.9 1.9v33.7c0 7 1.7 13.2 5.1 18.5s8.4 9.3 15 12c2.9 1.1 5.9 2 9 2.6s5.5.9 7.3.9c1.3 0 1.9-.6 1.9-1.9V99.7c0-1.3-.6-1.9-1.7-1.9-5-.4-8.7-1.9-11.1-4.5s-3.6-5.7-3.6-9.1V50.5c-.1-1.3.6-2 1.9-2M439.8 118c-1.3 0-1.9-.6-1.9-1.9V32.3c0-1.3.6-1.9 1.9-1.9h16.3c.6 0 1.1.1 1.4.3s.5.7.5 1.4v11.4c0 1.3.5 1.9 1.5 1.9.5 0 .9-.2 1.3-.6 1-1 6.3-14.2 14.6-14.4 2-.1 3.8.2 5.4.6 1 .3 1.5.9 1.5 1.9v19.3c0 1.4-.6 2.1-1.9 2.1-.6 0-1.4-.3-2.4-.9s-2.5-.9-4.5-.9c-4 0-7.2 1.3-9.9 3.8-2.6 2.6-3.9 5.8-3.9 9.6v50.2c0 1.3-.6 1.9-1.9 1.9h-18zM566.3 93.9c.8.4 1.1.9 1.1 1.5 0 .4-.3 1.1-.9 2.2s-1.2 2.3-2 3.5c-2.9 4.9-6.8 8.9-11.5 12.1s-11.2 4.8-19.5 4.8c-5.5 0-10.4-.8-14.8-2.5s-8.2-4-11.3-7-5.5-6.6-7.2-10.7-2.5-8.7-2.5-13.7V60.4c0-4 .8-7.9 2.5-12 1.7-4 4.1-7.7 7.2-10.9 3.1-3.3 6.9-5.9 11.3-7.9s9.3-3.1 14.8-3.1c5.4 0 10.2 1 14.7 3.1 4.4 2 8.2 4.7 11.3 7.9 3.1 3.3 5.5 6.9 7.2 10.9s2.5 8 2.5 12v15.5c0 1.3-.6 1.9-1.9 1.9h-45.6c-1.3 0-1.9.6-1.9 1.9v4.4c0 3.7 1.3 6.9 3.9 9.7s5.9 4.1 9.9 4.1c2.6 0 5-.9 7.4-2.6s4.4-4.6 6.2-8.7c.4-.8.9-1.1 1.5-1.1.4 0 1.5.4 3.2 1.3l14.4 7.1zm-21.5-34.5c1.4 0 2.1-.6 2.1-1.7 0-.5-.3-1.4-.8-2.7s-1.3-2.5-2.4-3.7-2.5-2.3-4.1-3.3c-1.7-1-3.7-1.4-6.1-1.4-2.3 0-4.3.4-6 1.3s-3.2 2-4.3 3.3-2 2.5-2.5 3.7-.8 2.2-.8 2.8c0 1.2.7 1.7 2.1 1.7h22.8z"/><circle cx="585.1" cy="15.3" fill="none" stroke="#434241" stroke-width=".802" stroke-miterlimit="10" r="14.9"/><path d="M579.6 7.9h7.1c1.6 0 2.9.3 3.7 1.1.9.7 1.3 1.7 1.3 3.1s-.4 2.4-1.3 3.2c-.2.2-.5.3-.7.5l.3.2c.9.6 1.4 1.4 1.4 2.7l.1 2.8c0 .5.1.8.2 1s.3.4.6.5v.3h-2.6c0-.1-.1-.4-.2-1-.1-.5-.1-1.1-.1-1.8v-1.2c0-1-.3-1.6-.7-2s-1.2-.6-2.1-.6h-4.9v6.6h-2l-.1-15.4zm2.1 6.9h5.1c1 0 1.7-.2 2.1-.6.5-.4.7-1.1.7-2s-.2-1.5-.7-1.9-1.2-.6-2.2-.6h-5v5.1z" fill="#434241"/></svg>