<svg fill="none" xmlns="http://www.w3.org/2000/svg" viewBox="0 0 132 33"><path d="M42.277 25.854l1.643-3.741c1.776 1.299 4.135 1.974 6.468 1.974 1.723 0 2.81-.65 2.81-1.637-.027-2.754-10.311-.597-10.39-7.51-.027-3.507 3.153-6.21 7.66-6.21 2.677 0 5.354.65 7.262 2.131l-1.537 3.82c-1.75-1.091-3.923-1.87-5.99-1.87-1.405 0-2.333.649-2.333 1.48.026 2.703 10.39 1.221 10.496 7.822 0 3.585-3.101 6.106-7.554 6.106-3.26 0-6.255-.754-8.535-2.365zm63.058-5.093a4.786 4.786 0 01-4.135 2.365c-2.624 0-4.745-2.079-4.745-4.651 0-2.573 2.12-4.651 4.745-4.651 1.776 0 3.313.961 4.135 2.364l4.532-2.468c-1.696-2.963-4.956-4.99-8.667-4.99-5.487 0-9.94 4.366-9.94 9.745 0 5.378 4.453 9.744 9.94 9.744 3.737 0 6.971-2.001 8.667-4.99l-4.532-2.468zM60.645.65h5.673v27.205h-5.672V.65zm51.449 0v27.205h5.672v-8.159l6.733 8.159h7.262l-8.561-9.692 7.925-9.043h-6.944l-6.415 7.51V.65h-5.672zM83.176 20.813c-.822 1.326-2.518 2.313-4.427 2.313-2.624 0-4.744-2.079-4.744-4.651 0-2.573 2.12-4.651 4.744-4.651 1.909 0 3.605 1.039 4.427 2.39v4.6zm0-11.693v2.21c-.928-1.534-3.234-2.6-5.646-2.6-4.983 0-8.906 4.314-8.906 9.719 0 5.404 3.923 9.77 8.906 9.77 2.412 0 4.718-1.066 5.646-2.599v2.21h5.672V9.12h-5.672zM7.209 20.787c0 1.897-1.564 3.43-3.499 3.43S.211 22.684.211 20.787c0-1.896 1.564-3.43 3.5-3.43h3.498v3.43zm1.75 0c0-1.896 1.563-3.43 3.498-3.43 1.935 0 3.499 1.534 3.499 3.43v8.575c0 1.897-1.564 3.43-3.499 3.43s-3.499-1.533-3.499-3.43v-8.575zm3.499-13.771c-1.935 0-3.499-1.533-3.499-3.43 0-1.897 1.564-3.43 3.499-3.43s3.499 1.533 3.499 3.43v3.43h-3.5zm0 1.74c1.935 0 3.499 1.534 3.499 3.43 0 1.897-1.564 3.43-3.5 3.43H3.685c-1.935 0-3.498-1.533-3.498-3.43 0-1.896 1.563-3.43 3.498-3.43h8.774zm14.022 3.431c0-1.897 1.564-3.43 3.498-3.43 1.935 0 3.5 1.533 3.5 3.43 0 1.896-1.565 3.43-3.5 3.43H26.48v-3.43zm-1.75 0c0 1.896-1.564 3.43-3.498 3.43-1.935 0-3.5-1.534-3.5-3.43V3.586c0-1.897 1.565-3.43 3.5-3.43 1.934 0 3.498 1.533 3.498 3.43v8.6zm-3.498 13.745c1.934 0 3.498 1.533 3.498 3.43 0 1.897-1.564 3.43-3.498 3.43-1.935 0-3.5-1.533-3.5-3.43v-3.43h3.5zm0-1.715c-1.935 0-3.5-1.533-3.5-3.43 0-1.896 1.565-3.43 3.5-3.43h8.773c1.935 0 3.499 1.534 3.499 3.43 0 1.897-1.564 3.43-3.499 3.43h-8.773z" fill="#959DAE"/></svg>