<svg xmlns="http://www.w3.org/2000/svg" overflow="visible" viewBox="0 0 2499.7 2021"><style></style><g transform="matrix(.569 0 0 .569 199.451 -82.735)"><linearGradient id="SVGID_1_" gradientUnits="userSpaceOnUse" x1="-9232.929" y1="-5722.224" x2="-8392.226" y2="-6218.981" gradientTransform="translate(2691.836 3007.965) scale(.1187)"><stop offset="0" stop-color="#909ca9"/><stop offset="1" stop-color="#ededee"/></linearGradient><path d="M2627.9 1276.4l-485.2 158.4-422.1 186.3-118.1 31.2c-30.1 28.6-61.6 57.6-95.7 86.9-37.4 32.3-72.2 61.6-99 82.9-29.7 23.5-73.7 67.5-96.1 95.3-33.4 41.8-59.8 86.2-71.1 120.3-20.2 61.6-10.3 123.9 28.6 181.5 49.9 73.3 149.3 148.1 265.1 199.1 59 26 158.4 59.4 233.2 78.1 124.3 31.5 364.9 65.6 497.3 70.8 26.8 1.1 62.7 1.1 64.2 0 2.9-1.8 23.5-41.1 47.3-89.8 81.4-166.1 140.1-322 172-455.1 19.1-80.7 34.1-188.1 44-315.4 2.6-35.6 3.7-154.8 1.5-195.1-3.3-66-9.2-119.5-18.3-172-1.5-7.7-1.8-14.7-1.1-15 1.5-1.1 5.9-2.6 65.6-19.8l-12.1-28.6zm-110.7 64.9c4.4 0 16.1 112.6 19.1 183.7.7 15 .4 24.9-.4 24.9-2.9 0-62-34.8-104.1-61.2-36.7-23.1-106.3-69.3-117.3-78.1-3.7-2.6-3.3-2.9 26.8-13.2 50.8-17.2 171.9-56.1 175.9-56.1zm-247.2 81.4c3.3 0 11.7 4.8 31.9 17.2 75.5 47.3 178.2 104.5 222.2 123.6 13.6 5.9 15 3.7-16.1 24.9-66.7 45.5-150 90.2-251.9 135.3-18 8.1-33 14.3-33.4 14.3-.7 0 1.5-9.2 4.4-20.2 24.6-91.3 38.5-183.7 39.2-257.8.4-36.7.4-36.7 3.7-37.8-.7.5-.4.5 0 .5zm-51 19.4c2.2 2.2.7 84.3-2.2 106.7-6.6 53.5-16.9 103.4-33.7 159.5-4 13.6-7.7 24.9-8.4 25.7-1.5 1.8-51.7-47.3-68.2-66.4-28.6-33-51-66-67.5-98.3-8.4-16.5-21.6-48.8-20.5-49.9 5.8-3.9 199.1-78.7 200.5-77.3zm-239.8 94.3c.4 0 .7 0 1.1.4.7.7 3.3 6.6 5.5 13.2 11.7 31.9 38.1 78.8 60.9 108.9 24.9 33 57.6 68.2 84.7 91.3 8.8 7.3 16.9 14.3 18 15.4 2.2 2.2 2.9 1.8-56.8 24.6-69.3 26.4-144.8 52.8-231.4 80.7-20.7 6.7-41.3 13.4-62 20.2-3.3 1.1-2.2-.7 7.3-15.8 42.9-67.1 108.2-198.8 144.9-291.9 6.2-16.1 12.5-32.3 13.6-35.9 1.5-5.1 3.3-7 8.1-9.5 2.4-.9 5-1.6 6.1-1.6zm-73.3 30.4c1.1.7-17.6 40-35.9 75.9-35.6 69.3-74.4 137.5-126.5 220.4-8.8 14.3-17.2 27.5-18.3 29-1.8 2.6-2.6 1.8-8.4-9.5-12.5-24.6-22.7-56.1-28.2-85.1-5.5-28.6-4.4-78.5 1.8-109.3 4.8-22.7 4.4-22.4 15.4-27.9 46.8-23.8 198.6-95 200.1-93.5zm632.6 25.7v15.4c0 81.8-8.8 194-21.6 275.8-2.2 14.3-4 26-4.4 26.4 0 0-10.6-2.9-23.1-6.6-55-17.2-114.8-42.5-168.7-72.2-35.6-19.4-87.3-51.3-85.8-52.8.4-.4 15.8-8.4 33.7-18 71.9-37.4 140.8-77.7 200.6-117.7 22.4-15 56.1-39.2 63.4-45.8l5.9-4.5zM1629 1701c1.5 0 1.1 2.9-1.1 16.1-1.5 9.5-3.3 27.1-4 39.2-2.9 53.5 5.9 93.2 32.3 147.4 7.3 15 13.2 27.5 12.8 27.9-2.6 2.2-245.3 73.3-321.6 94.2-22.7 6.2-42.5 11.7-44 12.1-2.6.7-2.9.4-1.8-5.9 8.4-53.9 49.5-124.3 106.7-183.7 38.1-39.6 68.6-62.7 120.7-92.4 37.4-21.3 95-53.2 99.4-54.6-.1-.3.2-.3.6-.3zm572.1 102.3c.4-.4 9.2 4.4 19.8 10.6 78.5 45.5 187.8 87.6 280.9 109.3l8.4 1.8-11.7 6.6c-48.8 27.1-209 93.9-372.9 155.1-23.8 8.8-47.3 17.6-51.7 19.4-4.4 1.8-8.4 2.9-8.4 2.6 0-.4 6.6-13.2 15-29 45.8-85.8 92-190.3 115.5-262.9 2.9-6.9 4.7-13.1 5.1-13.5zm-58.3 19.1c.4.4-2.6 8.1-6.2 16.9-31.9 77.4-73.7 161.7-127.3 256.3-13.6 24.2-24.9 43.6-25.3 43.6-.4 0-11.4-6.6-24.6-14.7-77.7-47.7-146.7-106.3-191.8-163.2l-6.6-8.1 33.4-9.2c119.6-32.6 221.1-67.8 322-111.1 14.3-5.7 26-10.5 26.4-10.5zm362.3 126.5s.3.4 0 0c.4 8.4-18.3 84-33.7 138.6-12.8 45.8-23.8 81.8-44 145.2-8.8 27.9-16.5 51-16.9 51-.4 0-2.6-.4-4.8-1.1-108.9-19.8-206.5-47.3-298.1-84-25.7-10.3-62.3-26.8-64.5-28.6-.7-.7 21.3-11 49.1-23.1 166.9-73 339.9-155.9 399.3-191.4 7-4.4 12.5-6.6 13.6-6.6zm-836.5 28.6c.7.7-45.8 67.8-111.1 159.2-22.7 31.9-49.1 69.3-59 83.2-9.9 13.9-24.9 35.9-33.4 49.1l-15.4 23.8-16.5-13.9c-19.4-16.1-53.2-50.6-68.2-69.7-31.5-39.2-52.8-80.7-61.2-118.4-4-17.6-4-26.4-.4-27.5 5.5-1.5 103.4-24.6 195.1-45.8 51-11.7 110-25.7 131.3-30.8 21.2-5.1 38.4-9.2 38.8-9.2zm46.9 18l11.7 13.2c52.8 59 106.7 102.7 172 140.8 11.7 6.6 20.5 12.5 19.8 12.8-2.6 1.8-226.6 81.4-330.4 117.3-58.3 20.5-106.3 37-106.7 37-.4 0-3.7-2.2-7.3-4.8l-6.6-4.8 10.6-15.4c34.5-49.9 77.7-104.5 172-218.2l64.9-77.9zm292.7 209.4c.4-.4 16.5 5.5 36.3 12.8 47.7 18 85.4 29.3 136.1 42.2 62.3 15.8 152.6 31.2 205.7 35.6 8.1.7 12.5 1.5 11 2.6-2.6 1.5-56.5 19.4-96.1 31.9-63.1 19.8-255.6 76.6-412.6 121.7-29 8.4-53.9 15.4-55.4 15.8-3.7.7-15.8-2.6-15.8-4 0-.7 8.8-12.1 19.4-24.6 52.8-63.1 105.2-133.5 148.9-200.2 12.2-18.4 22.5-33.4 22.5-33.8zm-64.6 1.8c.4.4-25.7 42.2-71.1 114-19.4 30.4-41.1 64.9-48.8 77-7.3 11.7-18.3 30.1-24.6 40.3l-10.6 18.7-5.5-1.5c-13.2-3.7-106-36.3-130.6-46.2-30.4-12.1-62-26.8-85.4-39.2-29.3-15.8-66-39.2-63.1-40 .7-.4 51-13.9 111.5-30.4 160.6-43.6 249.7-68.9 308-87.3 10.7-3.2 19.9-5.7 20.2-5.4zm456.6 107.1h.4c1.5 3.7-57.9 168.7-79.6 220.8-4.8 11.7-6.6 14.7-9.2 14.3-6.2-.4-92.4-12.5-144.9-20.2-91.3-13.9-244.6-40.7-283.1-49.5l-8.8-1.8 54.6-12.5c117.4-26.4 173.8-40.7 231-58.3 72.2-22 143.8-49.5 216-83.2 11.5-5.2 21-9.2 23.6-9.6z" fill="url(#SVGID_1_)"/><linearGradient id="SVGID_2_" gradientUnits="userSpaceOnUse" x1="-9199.766" y1="-22176.514" x2="-8523.315" y2="-22176.514" gradientTransform="translate(2691.836 3007.965) scale(.1187)"><stop offset="0" stop-color="#939fab"/><stop offset="1" stop-color="#dcdee1"/></linearGradient><path d="M2127.7 145.4c-8.1-1.1-138.3 45.8-222.2 79.9-113.3 46.2-201.3 90.2-255.6 128.3-20.2 14.3-45.5 39.6-49.5 49.5-1.5 3.7-2.2 8.1-2.2 12.5l49.1 46.6 117 37.4 278.3 49.9 318.3 54.6 3.3-27.5c-1.1 0-1.8-.4-2.9-.4l-41.8-6.6-8.4-15c-43.3-76.3-90.9-170.9-118.8-234.7-21.6-49.5-42.2-106.7-53.5-147.8-6.3-24.8-7-26.3-11.1-26.7zm-5.8 18.7h.4c.4.4 1.8 10.6 3.3 22.7 6.2 51.3 17.6 100.8 35.6 154.4 13.6 40.3 13.6 38.1-2.2 33.4-37.4-10.3-205-39.2-326.4-56.1-19.4-2.6-35.9-5.1-35.9-5.5-1.5-1.5 87.6-48 126.9-66.4 50.1-23.1 188-80.6 198.3-82.5zm-353.6 164.3l14.3 4.8c77.7 26.4 273.2 63.8 381 72.6 12.1 1.1 22.4 2.2 22.7 2.2.4.4-9.9 5.9-23.1 12.1-52.1 26-109.3 57.9-148.9 82.5-11.7 7.3-22.4 13.2-23.8 13.2-1.5 0-9.2-1.5-17.2-2.6l-14.7-2.2-36.7-35.9c-64.5-62.7-115.2-111.1-134.6-129.4l-19-17.3zm-14.6 11.4l51.7 64.5c28.2 35.6 56.8 70.4 63.1 78.1 6.2 7.7 11.4 13.9 11 14.3-1.5 1.1-74.8-13.2-113.7-22-40-9.2-56.5-13.6-81-21.3l-20.2-6.6v-5.1c.4-24.6 31.5-61.2 84.3-98.6l4.8-3.3zm439.3 88c1.5 0 3.3 3.3 7.7 13.2 12.5 27.5 51.3 101.6 60.9 115.9 2.9 4.8 8.1 5.1-43.6-3.3-124.3-20.2-164.3-26.8-164.3-27.5 0-.4 3.7-2.9 8.4-5.5 38.5-21.3 77.4-48.4 111.8-77.4 8.4-7 16.1-13.6 17.6-14.7.4-.7 1.1-1.1 1.5-.7z" fill="url(#SVGID_2_)"/><radialGradient id="SVGID_3_" cx="-19379.516" cy="-6698.44" r="898.12" gradientTransform="matrix(-.114 -.01713 .03464 -.228 334.115 -837.971)" gradientUnits="userSpaceOnUse"><stop offset="0" stop-color="#ee352c"/><stop offset="1" stop-color="#a91d22"/></radialGradient><path d="M1603 398.1s-8.1 12.8-.4 31.9c4.8 11.7 18.7 26 34.5 40.7 0 0 163.2 159.2 183 181.9 90.2 104.1 129.4 206.8 133.1 348.4 2.2 90.9-15 170.9-57.9 263.7-76.3 166.5-237.3 350.2-485.5 554.1l36.3-12.1c23.5-17.6 55.4-36.3 130.2-77.4 172.7-94.6 367.1-181.5 605.4-271 343.2-129.1 907.6-280.2 1228.9-329.3l33.4-5.1-5.1-8.1c-29.3-45.5-49.5-73.7-73.7-103.8-70.4-87.3-155.8-158.1-260.4-216.7-143.8-80.3-329.7-143-565.1-189.6-44.4-8.8-141.9-25.7-221.1-37.8-168-26-276.5-44-396.1-64.5-42.9-7.3-107.1-18.3-149.6-27.5-22-4.8-64.2-14.7-97.2-26-26.5-10.4-64.7-20.6-72.7-51.8zm94.6 91.7c.4-.4 6.2 1.8 13.9 4.4 13.9 4.8 31.9 10.3 53.2 16.1 16.1 4.4 32.2 8.7 48.4 12.8 22 5.5 40.3 10.6 40.7 10.6 2.6 2.6 39.6 121 52.1 166.5 4.8 17.2 8.4 31.9 8.1 31.9-.4.4-4.4-5.9-9.2-14.3-42.9-75.5-110.7-152.2-189.2-213.8-10.3-7.3-18-13.9-18-14.2zm180.4 49.8c1.8 0 9.9 1.1 19.8 3.3 62.3 13.9 174.2 35.2 245.7 47.3 12.1 1.8 21.6 4 21.6 4.8 0 .7-4.4 3.3-9.9 6.2-12.1 6.2-60.9 35.2-77 46.2-40.7 27.1-77.4 56.5-103.8 82.9-10.6 10.6-19.8 19.4-19.8 19.4s-2.2-6.2-4-13.9c-13.2-51-40.7-126.5-65.6-179.7-4-8.4-7.3-16.1-7.3-16.9-.1.8-.1.4.3.4zm317.6 60.6c2.2.7 5.9 13.2 13.2 40.7 13.6 53.2 19.8 112.6 17.6 168-.7 15.4-1.5 29.7-2.2 31.5l-1.1 3.7-19.1-6.2c-39.2-12.5-103-31.2-157.7-46.6-31.2-8.4-56.5-16.1-56.5-16.9 0-2.2 45.5-47.7 64.9-64.9 37.1-32.7 137.6-110.4 140.9-109.3zm25.3 3.6c1.1-1.1 151.8 24.9 220.4 38.1 51 9.9 125.1 25.3 129.4 27.1 2.2.7-5.5 5.1-30.1 16.1-96.8 43.6-168.7 82.9-240.2 130.6-18.7 12.5-34.5 22.7-34.8 22.7-.4 0-.7-10.6-.7-23.5 0-69.7-13.9-140.1-39.6-199.5-2.6-5.7-4.8-11.2-4.4-11.6zm389.8 77c1.1 1.1-3.7 30.8-8.1 48.4-13.2 54.6-48.8 135.7-92.4 212-7.7 13.6-14.7 24.6-15.4 24.9-.7.4-10.6-5.1-22-11.7-42.5-24.9-90.9-48.4-143.8-70.4-14.7-6.2-27.5-11.4-27.9-12.1-2.6-2.2 115.5-80.3 177.9-117.7 49.5-30.1 130.2-74.8 131.7-73.4zm27.9 4.4c3.3 0 70 18.3 104.9 28.6 86.2 25.7 185.2 62 249.7 91.3l26.8 12.1-18.7 4.4c-157.7 36.3-292.6 78.1-422.8 130.9-10.6 4.4-20.2 8.1-20.9 8.1-.7 0 2.9-8.4 7.7-18.7 39.2-83.2 64.5-170.2 70.8-244.2.3-7 1.4-12.5 2.5-12.5zm-664.5 152.6c1.1-1.1 52.1 11 79.6 18.7 41.8 11.7 130.5 41.4 130.5 43.6 0 .4-9.9 8.8-21.6 19.1-48 40-94.2 82.1-149.6 135.7-16.5 15.8-30.4 28.6-31.2 28.6-.7 0-1.1-2.2-.7-5.1 8.4-61.6 6.6-140.8-5.1-221.1-1.2-10.4-2.3-19.2-1.9-19.5zm1071.2 1.1c.7.7-23.5 38.9-38.9 60.5-22 31.5-54.3 73.3-127.3 165-38.5 48.4-81.8 103-96.1 121.4-14.7 18.3-26.8 33.7-27.1 33.7-.4 0-5.1-6.6-10.3-14.7-41.1-61.6-90.2-115.5-148.5-163.9-11-9.2-23.1-19.1-27.1-22-4-2.9-7.3-5.9-7.3-6.2 0-1.1 62.3-27.9 109.6-46.9 82.9-33.7 195.8-74.1 280.5-100.1 44.4-14 91.7-27.6 92.5-26.8zm28.2 7.3c1.5-.4 10.3 4 20.9 10.3 89.1 51 176.4 116.6 245.3 184.1 19.4 19.1 67.5 68.9 66.7 69.3 0 0-16.9 1.5-36.7 2.9-154.4 11.7-352 44.4-542 90.2-12.8 2.9-24.2 5.5-24.9 5.5-.7 0 13.6-14.3 31.5-31.5 111.5-107.4 162.5-175.3 222.6-296.3 8.5-18 15.9-33.4 16.6-34.5-.4 0-.4 0 0 0zm-816.7 83.6c5.1 1.1 52.8 23.5 88.7 41.4 33 16.5 82.5 42.9 85.1 45.1.4.4-17.2 9.5-38.9 20.2-68.9 34.5-128 67.1-189.6 104.5-17.6 10.6-32.3 19.4-32.6 19.4-1.5 0-1.1-1.5 8.8-19.4 33-60.1 59.4-132 74.4-202.1 1.5-5.4 3-9.1 4.1-9.1zm-47.7 8.8c1.1 1.1-11.4 46.2-19.1 70.8-15 46.6-40.3 104.9-64.9 148.9-5.9 10.3-14.7 25.3-19.4 33.7l-9.2 14.7-20.5-19.8c-23.8-23.1-43.3-37.4-68.2-50.2-9.9-5.1-17.6-9.5-17.6-10.3 0-2.9 62.7-59.8 110.7-100.8 34.5-29.8 107.1-88.1 108.2-87zm291.6 119.9l18 11.7c41.1 26.8 89.5 62.3 126.5 93.5 20.9 17.2 61.2 53.5 69.3 62.3l4.4 4.8-29.7 8.4c-168 46.6-297.8 88-449.2 143.8-16.9 6.2-31.2 11.4-32.3 11.4-2.2 0-4 1.8 33.7-33 96.8-89.1 182.6-187.4 246.4-283.1l12.9-19.8zm-76.7 19.1c.7.7-49.5 71.5-79.6 111.5-35.9 47.7-99.7 127.6-143.8 179.7-18.3 21.6-34.1 39.6-34.8 40-1.1.4-1.5-5.1-1.5-13.6 0-44.4-11.4-91.7-31.2-132-8.4-16.9-9.9-20.9-8.1-22.7 7-6.2 113.7-67.1 181.2-103.4 45.6-24.3 116.7-60.2 117.8-59.5zm-463.5 113.7c1.1 0 9.5 4.4 19.1 9.5 23.5 12.8 44.4 27.1 63.1 42.5.7.7-8.8 8.4-21.3 17.6-34.8 24.9-87.6 64.9-118.4 89.5-32.3 25.7-33.4 26.4-29.7 20.9 24.2-37 36.3-57.9 49.1-84.7 11.4-23.8 22.7-52.1 30.8-76.6 2.9-10.6 6.6-18.7 7.3-18.7zm123.6 96.8c1.8-.4 4 2.9 13.9 17.6 20.9 31.2 37 73 41.1 106.7l.7 7.3-50.2 19.4c-89.9 34.8-172.7 69.3-228.8 95-15.8 7.3-43.3 20.5-61.2 29.3-18 9.2-32.6 16.1-32.6 15.8s11.4-8.8 25.3-19.1c109.7-79.6 204.6-166.9 275.8-254.1 7.7-9.2 14.7-17.6 15.4-18l.6.1zm-56.8 13.9c1.5 1.5-40.3 48.8-68.9 77.7-70.8 72.2-140.8 128.7-227.7 183.7-11 7-20.9 13.2-22 13.9-2.6 1.5.7-2.2 38.9-43.6 24.2-26 42.5-48 63.4-75.2 13.9-18 16.5-20.5 36.7-34.8 53.8-38.8 178.1-123.1 179.6-121.7z" fill="url(#SVGID_3_)"/></g><path d="M449.4 1522.1c-3.8 0-7.7.4-11.5.4-77.7 4.1-130.2 38.4-160.8 105.2-26.2 60.4-23.4 139.4.3 200.2 27.5 59.4 71.9 90.8 146.1 102.6 15.7 2.6 26.2 11.2 56.6 46.7l37.4 43.8h67.8l-45.1-45.5c-24.9-24.9-45.1-46.6-45.1-48.6 0-1.9 9.5-6.1 21.1-9.6 38.1-11.5 69.7-40.9 91.8-86 17.9-36.2 20.5-47.4 23-92.4 6.7-134-63.9-217.8-181.6-216.8zm59.5 350.5c-33 16-80.9 19.2-112.2 7.7-32.3-11.9-63.7-45.5-77.7-83.5-15.7-41.6-13.4-118.3 4.5-152.8 28.8-55 66.9-80.3 122.5-80.3 82.5 0 129.4 50.5 135.6 145.5 4.7 79.3-21.9 138.8-72.7 163.4zm1171.9-236c-28.5 0-50.2 11.5-64.9 34.2l-11.5 18v-46.7h-49.2v280.2h49.2v-89.6c0-81.9 1-91.5 12.5-113.9 15.8-30.7 42.9-46.1 69.1-38.7l17.6 5.1v-48.6h-22.8zm-289.3-2.6c-9.6 0-19.9 1.3-30.1 3.5-65.9 17.2-103 80.3-100.8 145.2 0 54.3 10.6 81.5 36.8 110 53.7 44.1 102.3 47.6 167.9 23.9 11.2-4.8 23.4-10.3 23.4-10.3v-44.1l-23.4 12.1c-53.1 23.1-93 23.1-125.1-4.1-20.4-20.8-29.4-45.7-33.6-74.2h198.6v-37.8c.1-76.8-46.3-125.4-113.7-124.2zm-80.3 122.9s7.3-48 34.5-66.9c13.1-9.2 28.1-13.7 42.8-13.7 14.7 0 29.4 4.8 41.6 14 24.9 19.2 29.1 66.2 29.1 66.2h-148.1l.1.4zm-1187.3-50.5c-53.4-32.3-77.1-55.7-74.2-83.2 8.3-76.1 102.3-65.6 154.4-36.8l.4-51.2s-28.8-12.5-70-13.1c-63.3-1-104.2 19.8-123.4 62-28.2 62.3-3.2 109.4 86.9 161.8 50.6 29.4 73 55 73 82.9 0 57.6-69.4 77.7-141 41.5-14.7-7.3-27.2-13.5-27.9-13.5-2.6 16.3-1.2 55.4-1.2 55.4s22 9.2 55 15.6c81.8 16.3 156.3-22.1 163.4-84.4 5.9-58.5-15.2-89.1-95.4-137zm1992.8-73c-9.6 0-19.8 1.3-30.4 3.6-65.8 17.2-102.9 80.3-100.4 145.2 0 54.3 10.5 81.2 36.7 109.6 53.7 44.1 102.3 47.7 168.2 24 11.1-4.8 23.3-10.2 23.3-10.2v-44.2l-23.3 12.2c-53.2 23-93.1 23-125-4.2-20.5-20.8-29.4-45.4-33.6-74.2h198.2v-37.8c0-76.6-46.4-125.3-113.8-124h.1zm-80.3 122.8s7.4-48 34.6-67.2c13.1-9.3 28.1-13.8 42.8-13.8 14.7 0 29.4 4.8 41.6 14.1 24.9 19.2 29.1 66.5 29.1 66.5h-148l-.1.4zm-902.7-49.2c-53.4-32.3-77-55.7-74.1-83.2 8.3-76.1 102.3-65.6 154.4-36.8l.4-51.2s-28.8-12.5-70-13.1c-63.3-1-104.2 19.8-123.4 62-28.1 62.3-2.9 109.4 87 161.8 50.5 29.4 72.9 54.6 72.9 82.5 0 57.6-69.4 78-141 41.5-14.7-7.3-27.1-13.4-27.9-13.4-2.6 16.3-1.2 55.4-1.2 55.4s21.7 8.9 54.6 15.6c81.9 16.4 156.4-22 163.4-84.3 5.9-58.1-15.2-88.8-95.1-136.8zm1272.4-71c-28.5 0-50.5 11.5-64.9 34.3l-11.5 17.9v-46.6h-49.2v280.1h49.2V1832c0-81.9 1-91.5 12.5-113.8 15.8-30.7 42.9-46.1 69.1-38.7l17.6 5.1V1636h-22.8zM742 1705.4V1527h-49.7v395.2h208.8v-46.7H742v-170.1zm1148.3 55.6l-40.9 106.5-39.4-107.1-40-118.7h-50.8c32.9 93.4 68.8 188.3 104.9 280.4 15.7.4 31.4 0 47 0l55.3-138.8 56.3-141.6h-48.6c0 .1-21.5 56.3-43.8 119.3zM856.4 1419.2c8 0 14.7-2.6 20.2-8.1 5.4-5.4 8.3-11.8 8.3-19.8s-2.9-14.7-8.3-19.8c-5.5-5.1-11.8-7.7-19.8-7.7-8.1 0-14.7 2.6-20.2 8s-8 12.1-8 19.8c0 8.1 2.6 14.7 8 19.8 5.2 5.2 11.9 7.8 19.8 7.8zm-17.6-45.4c4.8-4.8 10.6-7 18-7 7 0 12.8 2.2 17.6 7 4.8 4.8 7.3 10.6 7.3 17.6 0 7-2.6 13.1-7.3 17.9-4.8 4.8-10.6 7-17.6 7-7.1 0-12.8-2.2-17.6-7-4.8-4.8-7.3-10.9-7.3-17.9 0-7.1 2.2-12.9 6.9-17.6zm11.9 20.1h3.2c2.3 0 4.5 2.2 6.4 6.4l3.9 8.7h6l-4.8-9.6c-1.9-3.8-3.8-6.1-6.1-6.7 2.8-.7 5.1-1.6 6.7-3.5 1.6-1.6 2.2-3.9 2.2-6.4 0-2.9-.9-5.1-2.9-6.7-2.2-1.8-5.7-2.8-10.3-2.8h-10.2v35.8h5.1v-15l.8-.2zm0-16.6h4.5c3.2 0 5.5.7 6.7 1.6 1.2 1 1.5 2.2 1.5 4.5 0 4.1-2.6 6.1-7.3 6.1h-5.5l.1-12.2zm-820.2 13.4c0-12.5-.4-21.7-.7-27.2h.3c1.3 6.4 2.9 11.3 4.1 14.4l47.7 106.5h8l47.7-107.4c1.3-2.9 2.6-7.3 4.1-13.5h.4c-1 10.6-1.3 19.9-1.3 27.2v94h16.3V1345h-20.5l-43.8 97.2c-1.6 3.8-3.9 9.6-6.7 17.2h-.7c-1-3.8-3.2-9.5-6.4-16.6l-42.8-98.2H14.5v139.7h15.7v-93.7l.3.1zm162.4.3H207v87h-14.1v-87zm7.1-31.9c2.9 0 5.4-1 7.3-2.9 1.9-1.9 3.2-4.4 3.2-7.3 0-2.9-1-5.4-3.2-7.3-2-1.9-4.5-2.9-7.4-2.9-2.9 0-5.4 1-7.3 2.9-1.9 1.9-3.2 4.5-3.2 7.3 0 3.2 1 5.4 3.2 7.3 2.2 1.9 4.5 2.9 7.4 2.9zm107.4 120.8v-15.3c-7.7 5.8-16 8.6-24.6 8.6-10.3 0-18.6-3.5-24.7-10.3-6-6.7-9.3-16-9.3-27.5 0-12.1 3.2-21.7 9.9-29 6.4-7 14.7-10.6 24.9-10.6 8.3 0 16.3 2.6 23.7 7.7v-16.3c-6.7-3.5-14.4-5.1-23-5.1-16 0-28.5 5.1-37.8 15-9.2 9.9-14 23.4-14 39.6 0 14.4 4.1 26.6 12.8 35.9 9 9.5 20.5 14.4 34.5 14.4 11-.3 19.9-2.6 27.6-7.1zm40.3-46.4c0-11.5 2.6-20.8 7.3-27.1 4.5-5.8 9.9-8.7 16.3-8.7 5.4 0 9.3 1 12.1 3.2v-16.7c-2.2-1-5.4-1.3-9.5-1.3-5.8 0-10.9 1.9-15.4 5.5-4.8 3.8-8.6 9.5-10.8 16.9h-.4V1385h-16v99.7h16v-51.2h.4zm91.8 53.2c15 0 27.1-4.8 36.1-14.4 8.9-9.5 13.4-22.4 13.4-38.4 0-16.3-4.1-28.8-12.5-38.1-8.3-9.3-19.8-13.8-34.8-13.8s-27.1 4.5-36.1 13.1c-9.6 9.5-14.7 23-14.7 40.3 0 15 4.1 27.5 12.8 36.8 8.9 9.7 20.8 14.5 35.8 14.5zm-22.7-81.3c6.1-6.4 14.1-9.6 24-9.6 10.3 0 18 3.2 23.7 9.6 5.8 6.7 8.6 16.3 8.6 29.1 0 12.2-2.6 21.7-8 28.2-5.4 6.7-13.4 10.3-24 10.3-10.3 0-18.2-3.6-24.3-10.3-6-6.7-8.9-16-8.9-28.2-.7-12.1 2.5-22 8.9-29.1zM559 1478c6.1-5.4 9.3-12.1 9.3-20.5 0-7.3-2.6-13.4-7.3-18.2-3.9-3.8-9.9-7.3-18.6-10.9-7.7-3.2-12.5-6.1-15-8.3-2.6-2.6-4.1-5.8-4.1-10.3 0-4.1 1.6-7.3 4.8-9.9 3.2-2.6 7.3-3.8 12.8-3.8 8.6 0 16 2.3 22.7 7.1v-16c-6.5-3.2-13.5-4.8-21.5-4.8-10.3 0-18.9 2.8-25.3 8.3-6.7 5.4-9.9 12.5-9.9 20.8 0 7.3 2.2 13.4 6.4 17.9 3.5 3.8 9.5 7.7 17.9 11.2 8 3.5 13.4 6.7 16.3 9.3 2.9 2.6 4.1 5.8 4.1 9.5 0 9.3-6.4 14.1-18.8 14.1-9.6 0-18.2-3.2-25.9-9.5v17.2c7 4.2 15.3 6.1 24.6 6.1 11.8-.6 21.1-3.5 27.5-9.3zm76.2-95.9c-15 0-27.1 4.5-36.1 13.1-9.5 9.5-14.7 23-14.7 40.3 0 15 4.1 27.5 12.8 36.8 9 9.6 20.8 14.4 35.8 14.4 15.4 0 27.1-4.8 36.1-14.4 9-9.5 13.5-22.4 13.5-38.4 0-16.3-4.2-28.8-12.5-38.1-8.7-9.3-20.2-13.8-34.9-13.7zm31 52.4c0 12.2-2.6 21.7-8 28.2-5.4 6.7-13.4 10.3-24 10.3-10.3 0-18.2-3.6-24.3-10.3-6-6.7-8.9-16-8.9-28.2 0-12.8 3.2-22.7 9.6-29.4 6-6.4 14-9.6 24-9.6 9.9 0 17.9 3.2 23.6 9.6 5.1 7 8 16.6 8 29.4zm43.2 49.9h16V1398h23.4v-13.4h-23.4v-15.4c0-14 5.4-21 16.6-21 3.8 0 7.6 1 10.5 2.6v-14.4c-2.9-1.3-6.7-1.6-11.5-1.6-8.6 0-15.7 2.6-21.4 8-6.7 6.4-10.3 14.7-10.3 25.9v16.4h-16.9v13.4h16.9v86l.1-.1zm65.5-27.2c0 19.5 8.6 29.4 26.2 29.4 6.4 0 11.2-1 15-3.3v-13.7c-2.9 2.2-6.4 3.2-10.3 3.2-5.4 0-9.2-1.3-11.5-4.2-2.3-2.9-3.6-7.7-3.6-14.4V1398H816v-13.4h-25.3v-29.4c-5.5 1.9-10.9 3.5-16 5.1v24.3h-17.2v13.4h17.2l.2 59.2zm1716.2 183.9c-5.4-5.1-11.8-7.7-19.8-7.7-8.1 0-14.7 2.6-20.2 8.1-5.4 5.4-8 12.1-8 19.8 0 8 2.6 14.7 8 19.8 5.4 5.1 12.1 7.7 20.2 7.7 8 0 14.7-2.6 20.2-8 5.4-5.5 8.3-11.8 8.3-19.8-.4-8.1-3.3-14.8-8.7-19.9zm-2.5 37.8c-4.8 4.8-10.6 7-17.6 7-7 0-12.8-2.2-17.6-7-4.8-4.8-7.3-10.9-7.3-18 0-7 2.2-12.8 7-17.6 4.8-4.8 10.5-7 17.9-7 7 0 12.8 2.2 17.6 7 4.8 4.8 7.3 10.6 7.3 17.6 0 7.4-2.2 13.1-7.3 18zm-14.4-16.4c2.9-.7 5.1-1.9 6.7-3.5 1.6-1.7 2.2-3.9 2.2-6.5 0-2.9-.9-5.1-2.9-6.7-2.2-1.8-5.8-2.8-10.3-2.8h-10.2v35.8h5.1v-15h3.2c2.2 0 4.4 2.2 6.4 6.4l3.8 8.6h6.1l-4.8-9.6c-1.5-4.2-3.4-6.1-5.3-6.7zm-3.5-3.2h-5.5v-12.1h4.5c3.2 0 5.4.6 6.7 1.6 1.3 1 1.6 2.2 1.6 4.5 0 4.1-2.6 6-7.3 6zm-892.2-278.8h4.5v-35.8h11.8v-4.5h-28.2v4.5h11.8l.1 35.8zm27.1-26.9c0-3.5 0-6.3-.3-8 .3 1.9 1 3.2 1.2 4.1l13.8 30.7h2.2l13.8-31c.4-1 .7-2.2 1.3-3.8-.3 3.2-.3 5.8-.3 7.7v27.1h4.8v-40.3h-5.8l-12.5 27.8c-.3 1-1.3 2.9-1.9 5.1h-.4c-.3-1.3-.9-2.6-1.8-4.8l-12.5-28.2h-6.5v40.3h4.5v-26.9l.4.2z" fill="#fff"/></svg>